<svg width="69" height="68" viewBox="0 0 69 68" fill="none" xmlns="http://www.w3.org/2000/svg">
<g id="basil:arrow-left-solid">
<path id="Vector" d="M27.2234 31.9664C27.0794 32.1194 26.9058 32.2422 26.7129 32.3273C26.5199 32.4124 26.3117 32.4582 26.1005 32.4619C25.8893 32.4656 25.6796 32.4271 25.4837 32.3488C25.2879 32.2704 25.11 32.1538 24.9606 32.0059C24.8113 31.858 24.6936 31.6818 24.6145 31.4878C24.5354 31.2939 24.4965 31.0861 24.5002 30.877C24.504 30.6678 24.5502 30.4616 24.6362 30.2705C24.7221 30.0794 24.846 29.9075 25.0006 29.7649L33.3886 21.4573C33.5343 21.3123 33.7075 21.1973 33.8983 21.1189C34.089 21.0404 34.2935 21 34.5 21C34.7065 21 34.911 21.0404 35.1018 21.1189C35.2925 21.1973 35.4657 21.3123 35.6114 21.4573L43.9994 29.7649C44.154 29.9075 44.2779 30.0794 44.3639 30.2705C44.4498 30.4616 44.496 30.6678 44.4998 30.877C44.5035 31.0861 44.4646 31.2939 44.3855 31.4878C44.3064 31.6818 44.1887 31.858 44.0394 32.0059C43.89 32.1538 43.7121 32.2704 43.5163 32.3488C43.3204 32.4271 43.1107 32.4656 42.8995 32.4619C42.6883 32.4582 42.4801 32.4124 42.2871 32.3273C42.0942 32.2422 41.9206 32.1194 41.7766 31.9664L36.0728 26.3172L36.0728 46.4423C36.0728 46.8554 35.9071 47.2517 35.6121 47.5438C35.3172 47.8359 34.9171 48 34.5 48C34.0829 48 33.6828 47.8359 33.3879 47.5438C33.0929 47.2517 32.9272 46.8554 32.9272 46.4423L32.9272 26.3172L27.2234 31.9664Z" fill="white"/>
<rect x="-1" y="1" width="66" height="66" rx="33" transform="matrix(-1 0 0 1 66.5 0)" stroke="white" stroke-width="2"/>
</g>
</svg>
