<svg width="74" height="74" viewBox="0 0 74 74" fill="none" xmlns="http://www.w3.org/2000/svg">
<path d="M51.8204 37.7071C52.2109 37.3166 52.2109 36.6834 51.8204 36.2929L45.4564 29.9289C45.0659 29.5384 44.4327 29.5384 44.0422 29.9289C43.6517 30.3195 43.6517 30.9526 44.0422 31.3431L49.6991 37L44.0422 42.6569C43.6517 43.0474 43.6517 43.6805 44.0422 44.0711C44.4327 44.4616 45.0659 44.4616 45.4564 44.0711L51.8204 37.7071ZM22.8578 36C22.3055 36 21.8578 36.4477 21.8578 37C21.8578 37.5523 22.3055 38 22.8578 38V36ZM51.1133 36H22.8578V38H51.1133V36Z" fill="#009551"/>
<circle opacity="0.2" cx="36.986" cy="36.9977" r="35.9867" transform="rotate(180 36.986 36.9977)" stroke="#009551"/>
</svg>
