<svg width="74" height="74" viewBox="0 0 74 74" fill="none" xmlns="http://www.w3.org/2000/svg">
<rect width="74" height="74" fill="#1E1E1E"/>
<g id="&#208;&#163;&#209;&#129;&#208;&#187;&#209;&#131;&#208;&#179;&#208;&#176;" clip-path="url(#clip0_0_1)">
<rect width="1920" height="8905" transform="translate(-102 -7916)" fill="white"/>
<g id="Frame 1686560570">
<g id="more-services">
<g id="Frame">
<g id="silder">
<g id="arrow-left">
<path id="Arrow 1" d="M51.1406 38C51.6929 38 52.1406 37.5523 52.1406 37C52.1406 36.4477 51.6929 36 51.1406 36V38ZM22.1781 36.2929C21.7875 36.6834 21.7875 37.3166 22.1781 37.7071L28.542 44.0711C28.9325 44.4616 29.5657 44.4616 29.9562 44.0711C30.3468 43.6805 30.3468 43.0474 29.9562 42.6569L24.2994 37L29.9562 31.3431C30.3468 30.9526 30.3468 30.3195 29.9562 29.9289C29.5657 29.5384 28.9325 29.5384 28.542 29.9289L22.1781 36.2929ZM51.1406 36H22.8852V38H51.1406V36Z" fill="#009551"/>
<circle id="Ellipse 9" opacity="0.2" cx="37.0133" cy="36.9977" r="35.9867" transform="rotate(180 37.0133 36.9977)" stroke="#009551"/>
</g>
</g>
</g>
</g>
</g>
</g>
<defs>
<clipPath id="clip0_0_1">
<rect width="1920" height="8905" fill="white" transform="translate(-102 -7916)"/>
</clipPath>
</defs>
</svg>
