<svg width="228" height="227" viewBox="0 0 228 227" fill="none" xmlns="http://www.w3.org/2000/svg">
<rect x="1.14258" y="0.5" width="226" height="226" rx="113" stroke="#009551"/>
<path d="M126.453 114.613L124.585 116.58L127.995 120.177H117.204C115.802 120.177 114.457 120.763 113.466 121.807C112.475 122.85 111.918 124.265 111.918 125.741C111.918 127.216 112.475 128.631 113.466 129.675C114.457 130.718 115.802 131.304 117.204 131.304H119.846V128.523H117.204C116.503 128.523 115.83 128.23 115.335 127.708C114.839 127.186 114.561 126.479 114.561 125.741C114.561 125.003 114.839 124.295 115.335 123.774C115.83 123.252 116.503 122.959 117.204 122.959H127.995L124.582 126.557L126.453 128.523L133.06 121.568L126.453 114.613Z" fill="#009551"/>
<path d="M106.036 120.844H97.9289L97.9249 100.689L113.374 111.259C113.6 111.414 113.869 111.496 114.143 111.496C114.418 111.496 114.686 111.414 114.912 111.259L130.358 100.694V112.832H133.06V99.4792C133.059 98.7711 132.774 98.0923 132.268 97.5916C131.761 97.0909 131.074 96.8093 130.358 96.8086H97.9289C97.2129 96.8086 96.5262 97.0894 96.0195 97.5894C95.5128 98.0893 95.2276 98.7676 95.2266 99.4752V120.844C95.2276 121.552 95.5127 122.23 96.0193 122.731C96.5258 123.232 97.2126 123.513 97.9289 123.514H106.036V120.844ZM127.384 99.4792L114.143 108.538L100.903 99.4792H127.384Z" fill="#009551"/>
</svg>
