<svg width="185" height="191" viewBox="0 0 185 191" fill="none" xmlns="http://www.w3.org/2000/svg">
<path d="M25.9541 1.85547L79.09 1.85547" stroke="#009551" stroke-width="3" stroke-linecap="round"/>
<path d="M2 100.727L106.094 100.727" stroke="#009551" stroke-width="3" stroke-linecap="round"/>
<path d="M15.9375 115.535L35.1013 115.536" stroke="#009551" stroke-width="3" stroke-linecap="round"/>
<path d="M49.0381 115.535L68.2019 115.536" stroke="#009551" stroke-width="3" stroke-linecap="round"/>
<path d="M82.5752 115.535L101.739 115.536" stroke="#009551" stroke-width="3" stroke-linecap="round"/>
<path d="M117.418 76.7695L171.86 76.7699" stroke="#009551" stroke-width="3" stroke-linecap="round"/>
<path d="M117.418 102.902L171.86 102.903" stroke="#009551" stroke-width="3" stroke-linecap="round"/>
<path d="M117.418 129.035L171.861 129.036" stroke="#009551" stroke-width="3" stroke-linecap="round"/>
<path d="M117.418 89.4023L171.86 89.4027" stroke="#009551" stroke-width="3" stroke-linecap="round"/>
<path d="M117.418 115.535L171.86 115.536" stroke="#009551" stroke-width="3" stroke-linecap="round"/>
<path d="M117.418 141.664L171.86 141.664" stroke="#009551" stroke-width="3" stroke-linecap="round"/>
<path d="M127.436 153.426L161.843 153.426" stroke="#009551" stroke-width="3" stroke-linecap="round"/>
<path d="M82.5752 150.812L101.739 150.813" stroke="#009551" stroke-width="3" stroke-linecap="round"/>
<path d="M49.0381 150.812L68.2019 150.813" stroke="#009551" stroke-width="3" stroke-linecap="round"/>
<path d="M15.9375 150.812L35.1013 150.813" stroke="#009551" stroke-width="3" stroke-linecap="round"/>
<path d="M15.9375 138.18L35.1013 138.18" stroke="#009551" stroke-width="3" stroke-linecap="round"/>
<path d="M49.0381 138.18L68.2019 138.18" stroke="#009551" stroke-width="3" stroke-linecap="round"/>
<path d="M82.5752 138.18L101.739 138.18" stroke="#009551" stroke-width="3" stroke-linecap="round"/>
<path d="M82.5752 173.461L101.739 173.461" stroke="#009551" stroke-width="3" stroke-linecap="round"/>
<path d="M49.0381 173.461L68.2019 173.461" stroke="#009551" stroke-width="3" stroke-linecap="round"/>
<path d="M15.9375 173.461L35.1013 173.461" stroke="#009551" stroke-width="3" stroke-linecap="round"/>
<path d="M106.094 61.9609L183.184 61.9609" stroke="#009551" stroke-width="3" stroke-linecap="round"/>
<path d="M134.84 35.3945H154.439" stroke="#009551" stroke-width="3" stroke-linecap="round"/>
<path d="M135.275 24.5039L153.568 24.5039" stroke="#009551" stroke-width="3" stroke-linecap="round"/>
<path d="M33.3594 10.1328L70.8158 10.1328" stroke="#009551" stroke-width="3" stroke-linecap="round"/>
<path d="M2 188.922L183.185 188.922" stroke="#009551" stroke-width="3" stroke-linecap="round"/>
<path d="M27.0195 1.85547C27.0195 1.02704 26.348 0.355469 25.5195 0.355469C24.6911 0.355469 24.0195 1.02704 24.0195 1.85547L27.0195 1.85547ZM24.0195 1.85547L24.0195 39.7475L27.0195 39.7475L27.0195 1.85547L24.0195 1.85547Z" fill="#009551"/>
<path d="M2 100.727L2 188.706" stroke="#009551" stroke-width="3" stroke-linecap="round"/>
<path d="M15.9375 115.535L15.9375 138.183" stroke="#009551" stroke-width="3" stroke-linecap="round"/>
<path d="M49.0381 115.535V138.183" stroke="#009551" stroke-width="3" stroke-linecap="round"/>
<path d="M82.5752 115.535V138.183" stroke="#009551" stroke-width="3" stroke-linecap="round"/>
<path d="M82.5752 150.812V173.461" stroke="#009551" stroke-width="3" stroke-linecap="round"/>
<path d="M49.0381 150.812V173.461" stroke="#009551" stroke-width="3" stroke-linecap="round"/>
<path d="M15.9375 150.812L15.9375 173.461" stroke="#009551" stroke-width="3" stroke-linecap="round"/>
<path d="M35.1006 115.535V138.183" stroke="#009551" stroke-width="3" stroke-linecap="round"/>
<path d="M68.2021 115.535V138.183" stroke="#009551" stroke-width="3" stroke-linecap="round"/>
<path d="M101.738 115.535V138.183" stroke="#009551" stroke-width="3" stroke-linecap="round"/>
<path d="M171.86 76.7695V89.4002" stroke="#009551" stroke-width="3" stroke-linecap="round"/>
<path d="M171.86 102.902V115.533" stroke="#009551" stroke-width="3" stroke-linecap="round"/>
<path d="M171.86 129.035V141.666" stroke="#009551" stroke-width="3" stroke-linecap="round"/>
<path d="M117.418 76.7695V89.4002" stroke="#009551" stroke-width="3" stroke-linecap="round"/>
<path d="M117.418 102.902V115.533" stroke="#009551" stroke-width="3" stroke-linecap="round"/>
<path d="M117.418 129.035V141.666" stroke="#009551" stroke-width="3" stroke-linecap="round"/>
<path d="M127.436 153.426V188.705" stroke="#009551" stroke-width="3" stroke-linecap="round"/>
<path d="M161.843 153.426V188.705" stroke="#009551" stroke-width="3" stroke-linecap="round"/>
<path d="M144.857 153.426V188.705" stroke="#009551" stroke-width="3" stroke-linecap="round"/>
<path d="M150.954 166.926L150.954 175.201" stroke="#009551" stroke-width="3" stroke-linecap="round"/>
<path d="M138.76 166.926L138.76 175.201" stroke="#009551" stroke-width="3" stroke-linecap="round"/>
<path d="M101.738 150.812V173.461" stroke="#009551" stroke-width="3" stroke-linecap="round"/>
<path d="M68.2021 150.812V173.461" stroke="#009551" stroke-width="3" stroke-linecap="round"/>
<path d="M35.1006 150.812V173.461" stroke="#009551" stroke-width="3" stroke-linecap="round"/>
<path d="M183.185 61.9609L183.185 188.703" stroke="#009551" stroke-width="3" stroke-linecap="round"/>
<path d="M154.004 24.5039L156.182 61.9604" stroke="#009551" stroke-width="3" stroke-linecap="round"/>
<path d="M133.098 61.9609L135.277 24.5046" stroke="#009551" stroke-width="3" stroke-linecap="round"/>
<path d="M106.094 61.9609L106.094 100.724" stroke="#009551" stroke-width="3" stroke-linecap="round"/>
<line x1="80.1553" y1="2.92187" x2="80.1553" y2="21.2633" stroke="#009551" stroke-width="3" stroke-linecap="round"/>
<path d="M70.8154 10.1328L70.8154 21.8924" stroke="#009551" stroke-width="3" stroke-linecap="round"/>
<path d="M33.3594 10.1328L33.3594 39.314" stroke="#009551" stroke-width="3" stroke-linecap="round"/>
<path d="M15.9375 100.724V51.1637C20.1505 34.9452 39.6035 35.7846 43.0813 51.1637C43.8692 54.6478 42.7986 85.6656 43.0813 100.724" stroke="#009551" stroke-width="3"/>
<path d="M60.7979 100.723V36.818C62.1132 17.3572 87.3248 16.4773 88.9913 36.818C89.3642 41.3697 88.6976 81.3067 88.9913 100.723" stroke="#009551" stroke-width="3"/>
</svg>
