<svg width="45" height="45" viewBox="0 0 45 45" fill="none" xmlns="http://www.w3.org/2000/svg">
<path fill-rule="evenodd" clip-rule="evenodd" d="M23.5635 3.32818C20.6881 5.30784 19.9009 8.22009 21.4381 11.1925C21.8469 11.9831 21.9328 13.3664 21.8579 17.9455L21.7637 23.7043L21.1556 21.2981C20.0955 17.1019 17.8064 14.5506 14.557 13.9435C12.6065 13.5792 8.58498 14.0484 7.91467 14.7183C6.90095 15.7324 8.92461 20.8821 11.081 22.7755C12.7268 24.2206 14.6419 24.6895 17.8958 24.443C21.0346 24.2055 21.1968 24.342 22.1342 28.0002C22.6368 29.9623 22.7052 34.5675 22.2384 35.0305C22.1662 35.102 20.9095 35.3268 19.4454 35.5303C14.504 36.2165 11.2882 37.7468 9.83692 40.1029L9.04492 41.3889L5.86523 41.3982C3.38095 41.4054 2.68555 41.5123 2.68555 41.8863C2.68555 42.1496 2.9303 42.459 3.22936 42.5738C4.09011 42.9041 42.3354 42.8058 42.8624 42.4717C43.9318 41.7945 42.7823 41.4074 39.7023 41.4074H36.5408L36.0723 40.3487C35.086 38.1212 30.8046 36.1082 26.107 35.6637L23.9186 35.4568L24.086 28.8932C24.2139 23.8683 24.392 21.9464 24.8454 20.6965C25.1713 19.7983 25.4617 19.0637 25.4913 19.064C25.5209 19.064 26.6879 19.3026 28.0845 19.5941C31.4182 20.2895 33.6433 19.8725 35.6178 18.1823C37.2187 16.8121 39.123 13.2801 39.123 11.681C39.123 10.6707 38.9959 10.5555 37.2881 10.0172C33.5364 8.83437 29.7803 9.50125 27.7181 11.7157C26.778 12.7249 25.0293 15.9246 25.0293 16.6351C25.0293 17.1067 23.7107 19.7512 23.4755 19.7512C23.3848 19.7512 23.3105 18.2146 23.3105 16.3364V12.9216L24.7625 11.9463C26.8161 10.5672 27.7793 9.00556 27.7793 7.05443C27.7793 5.27931 26.5521 2.45059 25.7158 2.29693C25.4315 2.24503 24.4631 2.70909 23.5635 3.32818ZM24.2504 4.57015C22.7413 5.56531 22.3016 6.38859 22.2934 8.23556L22.2858 9.95431L23.3209 8.14962C23.8901 7.15687 24.5845 6.34493 24.8643 6.34493C25.602 6.34493 25.4923 7.07609 24.4848 8.87906C23.2927 11.012 23.5708 11.5142 25.13 10.0437C26.1853 9.04818 26.4043 8.60681 26.4043 7.47278C26.4043 6.05412 25.8175 3.93696 25.4253 3.94109C25.3019 3.94212 24.7732 4.22537 24.2504 4.57015ZM30.873 11.0639C29.8779 11.4424 28.6315 12.5967 27.867 13.8476C27.4424 14.5423 27.0945 15.1996 27.0935 15.3086C27.0925 15.4175 28.1358 15.1508 29.4121 14.7159C32.2608 13.7452 34.0672 13.65 33.906 14.4791C33.8283 14.8789 33.1418 15.1838 31.62 15.4942C28.2372 16.1837 26.1066 17.6887 27.8511 18.1558C29.2815 18.5391 32.61 18.3844 33.5543 17.8912C34.9138 17.181 36.2369 15.6657 37.0327 13.9074C37.9629 11.8525 37.9333 11.6332 36.6656 11.1911C35.5467 10.801 31.7819 10.7185 30.873 11.0639ZM9.81802 15.5193C9.36427 15.6379 9.26561 15.9029 9.41652 16.5966C10.0005 19.2844 11.3542 21.45 13.1239 22.529C13.954 23.0354 14.8323 23.1832 16.9512 23.1732L19.7012 23.1602L18.3685 21.9832C17.6356 21.3355 16.3592 20.5476 15.5325 20.2317C14.4593 19.822 14.0293 19.4638 14.0293 18.9798C14.0293 18.4143 14.1864 18.3391 14.9746 18.5278C15.4947 18.6519 16.7704 19.2747 17.8099 19.9121C18.849 20.549 19.7476 21.0224 19.8064 20.9636C19.8651 20.9048 19.664 20.2599 19.3595 19.5305C18.6603 17.8575 17.2722 16.3663 15.845 15.7558C14.8082 15.312 11.1593 15.169 9.81802 15.5193ZM18.498 37.157C15.1348 37.7939 10.9355 39.9833 10.9355 41.0994C10.9355 41.2751 16.1021 41.4074 22.9668 41.4074C29.8315 41.4074 34.998 41.2751 34.998 41.0994C34.998 40.3583 32.4127 38.6272 30.2773 37.9386C28.5043 37.3666 26.9292 37.1652 23.6543 37.0913C21.291 37.0377 18.9707 37.0672 18.498 37.157Z" fill="white"/>
</svg>
