<svg width="210" height="202" viewBox="0 0 210 202" fill="none" xmlns="http://www.w3.org/2000/svg">
<path d="M2 199.132V189.414C2 188.862 2.44772 188.414 3 188.414H207.235C207.787 188.414 208.235 188.862 208.235 189.414V199.132C208.235 199.684 207.787 200.132 207.235 200.132H3C2.44772 200.132 2 199.684 2 199.132Z" stroke="#009551" stroke-width="3"/>
<path d="M16.9794 188.394V15.4609" stroke="#009551" stroke-width="3"/>
<path d="M17.0928 16.2703C17.3623 11.4201 22.051 7.86328 27.44 7.86328H52.1221C57.4035 7.86328 61.2294 11.6357 62.9542 15.4619L64.409 20.4738" stroke="#009551" stroke-width="3"/>
<path d="M54.3613 20.5273H64.409H73.1094C73.6617 20.5273 74.1094 20.9751 74.1094 21.5273V30.1738H53.3613V21.5273C53.3613 20.9751 53.809 20.5273 54.3613 20.5273Z" stroke="#009551" stroke-width="3"/>
<path d="M42.208 30.168H53.3699H85.9936C86.5459 30.168 86.9936 30.6157 86.9936 31.168V39.8628C86.9936 40.4151 86.5459 40.8628 85.9936 40.8628H42.208C41.6557 40.8628 41.208 40.4151 41.208 39.8628V31.168C41.208 30.6157 41.6557 30.168 42.208 30.168Z" stroke="#009551" stroke-width="3"/>
<path d="M34.8023 54.8348L41.0026 41.3822C41.166 41.0278 41.5206 40.8008 41.9108 40.8008H86.081C86.4799 40.8008 86.8407 41.0379 86.9989 41.4041L92.8118 54.8567C93.0971 55.5169 92.613 56.2534 91.8938 56.2534H35.7104C34.9809 56.2534 34.4969 55.4974 34.8023 54.8348Z" stroke="#009551" stroke-width="3"/>
<path d="M93.4258 56.25V116.808" stroke="#009551" stroke-width="3"/>
<path d="M34.3672 56.125V188.116" stroke="#009551" stroke-width="3"/>
<path d="M34.4941 80.1445H93.4097" stroke="#009551" stroke-width="3"/>
<path d="M93.1569 100.754C73.6026 100.754 34.4941 100.754 34.4941 100.754" stroke="#009551" stroke-width="3"/>
<path d="M51.4346 188.239V152.207" stroke="#009551" stroke-width="3"/>
<path d="M116.04 152.082V187.988" stroke="#009551" stroke-width="3"/>
<path d="M188.336 128.859L188.336 187.986" stroke="#009551" stroke-width="3"/>
<path d="M165.859 1.42188L171.833 116.809" stroke="#009551" stroke-width="3"/>
<path d="M131.381 1.42188L137.355 116.809" stroke="#009551" stroke-width="3"/>
<path d="M116.059 1.64844L109.949 116.722" stroke="#009551" stroke-width="3"/>
<path d="M150.683 1.64844L144.573 116.722" stroke="#009551" stroke-width="3"/>
<path d="M150.712 2.47656C155.739 2.47656 165.794 2.47656 165.794 2.47656" stroke="#009551" stroke-width="3"/>
<path d="M116.299 2.47656C121.326 2.47656 131.381 2.47656 131.381 2.47656" stroke="#009551" stroke-width="3"/>
<path d="M115.008 27.7148C120.779 27.7148 132.321 27.7148 132.321 27.7148" stroke="#009551" stroke-width="3"/>
<path d="M149.25 27.7148C155.021 27.7148 166.564 27.7148 166.564 27.7148" stroke="#009551" stroke-width="3"/>
<path d="M113.776 47.7227C120.317 47.7227 133.398 47.7227 133.398 47.7227" stroke="#009551" stroke-width="3"/>
<path d="M148.02 47.7227C154.56 47.7227 167.642 47.7227 167.642 47.7227" stroke="#009551" stroke-width="3"/>
<path d="M193.615 116.172L193.615 129.383" stroke="#009551" stroke-width="3"/>
<path d="M75.8652 116.172L75.8652 129.383" stroke="#009551" stroke-width="3"/>
<path d="M47.9004 139L47.9004 152.211" stroke="#009551" stroke-width="3"/>
<path d="M80.7695 128.859L80.7695 139.331" stroke="#009551" stroke-width="3"/>
<path d="M119.637 138.82L119.637 152.031" stroke="#009551" stroke-width="3"/>
<path d="M120.379 152.082H47.2812" stroke="#009551" stroke-width="3"/>
<path d="M120.379 139.332H47.2812" stroke="#009551" stroke-width="3"/>
<path d="M193.615 128.859H75.2627" stroke="#009551" stroke-width="3"/>
<path d="M193.615 116.809H75.2625" stroke="#009551" stroke-width="3"/>
</svg>
