<svg width="195" height="47" viewBox="0 0 195 47" fill="none" xmlns="http://www.w3.org/2000/svg">
<path d="M16.1375 17.2224C8.2465 18.4749 5.31686 19.6077 1.63281 22.0732C1.83866 13.2187 7.9667 4.23087 18.4661 1.37112C26.6863 -0.548755 33.7045 1.37113 39.9551 6.47782C35.6246 12.565 30.7222 15.3022 16.1375 17.2224Z" fill="white" stroke="white"/>
<path d="M3.80176 33.3827C5.66749 36.9126 6.86289 38.5376 9.29995 40.7228C14.4908 35.1722 18.5076 34.9437 30.5985 32.9468C39.0851 31.2295 42.8693 29.8004 47.2833 26.1335C47.4706 21.1451 47.1463 18.4393 45.3558 13.8711C39.2412 22.2258 32.0314 23.5527 18.5076 25.7086C11.9481 26.7544 8.13961 27.785 3.80176 33.3827Z" fill="white" stroke="white"/>
<path d="M11.4197 42.3526C10.5167 41.7515 10.0624 41.3804 9.29492 40.6905C13.077 36.0495 18.3208 34.4971 30.9062 32.814C36.896 31.6413 40.6511 30.2417 47.2757 26.1328C47.0438 28.1968 46.866 29.3769 45.9556 31.7635C38.3939 36.4877 29.5823 36.0547 23.3249 37.4751C17.0674 38.8956 14.0806 40.3414 11.4197 42.3526Z" fill="white" stroke="white"/>
<path d="M19.1742 45.779L17.0742 45.1924C20.6388 42.5348 31.2996 40.4533 40.8649 39.5703L38.7429 41.5554C27.1206 43.0619 23.7364 44.019 19.1742 45.779Z" fill="white" stroke="white"/>
<path d="M81.8476 20.7538H74.6456V36.0158H70.4336V17.4258H86.0596V36.0158H81.8476V20.7538ZM95.3392 29.1518C95.1139 31.4398 94.6025 33.2078 93.8052 34.4558C93.0079 35.6864 91.7599 36.3018 90.0612 36.3018C89.6625 36.3018 89.3072 36.2584 88.9952 36.1718L88.6052 36.0158V32.5838C88.6225 32.6011 88.6485 32.6098 88.6832 32.6098C88.7179 32.6271 88.7439 32.6358 88.7612 32.6358C88.9345 32.6704 89.1252 32.6878 89.3332 32.6878C90.0092 32.6878 90.5205 32.3324 90.8672 31.6218C91.2139 30.8938 91.4652 29.7671 91.6212 28.2418C91.8465 25.9191 91.9592 22.3138 91.9592 17.4258H105.037V36.0158H100.825V20.7538H95.7552C95.6339 24.9138 95.4952 27.7131 95.3392 29.1518ZM113.838 17.4258H119.324L125.356 36.0158H120.962L119.688 31.8818H112.954L111.68 36.0158H107.728L113.838 17.4258ZM113.864 28.8918H118.778L116.334 20.8578L113.864 28.8918ZM127.897 17.4258H132.109V25.0178H139.571V17.4258H143.783V36.0158H139.571V28.3458H132.109V36.0158H127.897V17.4258ZM147.752 17.4258H159.868V20.7018H151.938V25.0438H158.282V28.1118H151.938V32.7398H160.284V36.0158H147.752V17.4258ZM166.855 20.7018H161.837V17.4258H176.111V20.7018H171.093V36.0158H166.855V20.7018ZM181.554 17.4258H187.04L193.072 36.0158H188.678L187.404 31.8818H180.67L179.396 36.0158H175.444L181.554 17.4258ZM181.58 28.8918H186.494L184.05 20.8578L181.58 28.8918Z" fill="white"/>
</svg>
