<svg width="229" height="227" viewBox="0 0 229 227" fill="none" xmlns="http://www.w3.org/2000/svg">
<path d="M4.89502 15.5586H88.3864" stroke="#009551" stroke-width="3" stroke-linecap="round"/>
<path d="M88.8315 2.42188L114.213 2.42188" stroke="#009551" stroke-width="3" stroke-linecap="round"/>
<path d="M88.8315 82.5742L114.213 82.5742" stroke="#009551" stroke-width="3" stroke-linecap="round"/>
<path d="M4.89502 69.2148H88.3864" stroke="#009551" stroke-width="3" stroke-linecap="round"/>
<path d="M4.89502 15.5586V69.2157" stroke="#009551" stroke-width="3" stroke-linecap="round"/>
<path d="M88.3862 2.42188L88.3862 82.5736" stroke="#009551" stroke-width="3" stroke-linecap="round"/>
<path d="M114.213 2.42188L114.213 82.5736" stroke="#009551" stroke-width="3" stroke-linecap="round"/>
<path d="M114.213 68.5469C155.402 73.2224 155.13 98.6535 154.512 138.234" stroke="#009551" stroke-width="3" stroke-linecap="round"/>
<path d="M114.213 42.0508C162.527 44.9451 183.01 79.2323 181.452 124.874" stroke="#009551" stroke-width="3" stroke-linecap="round"/>
<path d="M114.213 14.8906C182.12 21.1246 212.844 63.8722 207.946 136.454" stroke="#009551" stroke-width="3" stroke-linecap="round"/>
<path d="M226.648 137.79C220.616 138.625 216.851 140.017 211.063 138.235C175.44 119.088 181.674 122.428 154.511 138.235" stroke="#009551" stroke-width="3" stroke-linecap="round"/>
<path d="M154.734 138.013C152.285 139.349 150.726 140.017 144.938 138.235C109.315 119.088 115.549 122.428 88.3862 138.235" stroke="#009551" stroke-width="3" stroke-linecap="round"/>
<path d="M88.8315 138.011C86.3824 139.347 84.8239 140.015 79.0352 138.234C43.4122 119.087 46.5292 122.204 19.3667 138.011" stroke="#009551" stroke-width="3" stroke-linecap="round"/>
<path d="M2.00049 137.344C8.05615 139.417 13.578 140.906 20.0346 137.566" stroke="#009551" stroke-width="3" stroke-linecap="round"/>
<path d="M22.0382 205.027L2.89087 224.175" stroke="#009551" stroke-width="3" stroke-linecap="round"/>
<path d="M226.871 184.1L207.723 164.953" stroke="#009551" stroke-width="3" stroke-linecap="round"/>
<circle cx="21.1477" cy="168.07" r="4.00758" fill="#009551"/>
<circle cx="47.8645" cy="154.711" r="4.00758" fill="#009551"/>
<circle cx="210.84" cy="208.144" r="4.00758" fill="#009551"/>
<path d="M181.897 166.734V222.841" stroke="#009551" stroke-width="3" stroke-linecap="round"/>
<path d="M181.896 222.838L153.843 194.785" stroke="#009551" stroke-width="3" stroke-linecap="round"/>
<path d="M153.844 194.787L181.897 166.734" stroke="#009551" stroke-width="3" stroke-linecap="round"/>
<path d="M154.066 194.785H87.7183" stroke="#009551" stroke-width="3" stroke-linecap="round"/>
<path d="M141.375 177.863V211.705" stroke="#009551" stroke-width="3" stroke-linecap="round"/>
<path d="M114.658 164.508L114.658 225.067" stroke="#009551" stroke-width="3" stroke-linecap="round"/>
<path d="M87.4956 167.625L87.4956 221.95" stroke="#009551" stroke-width="3" stroke-linecap="round"/>
<path d="M87.4958 167.625C18.2535 177.421 52.0952 225.067 87.4958 221.95" stroke="#009551" stroke-width="3" stroke-linecap="round"/>
</svg>
