<svg width="245" height="196" viewBox="0 0 245 196" fill="none" xmlns="http://www.w3.org/2000/svg">
<path d="M2 194.422L242.739 194.422" stroke="#009551" stroke-width="3" stroke-linecap="round"/>
<path d="M30.1719 179.055L100.601 179.055" stroke="#009551" stroke-width="3" stroke-linecap="round"/>
<path d="M73.0693 29.2344H88.4357" stroke="#009551" stroke-width="3" stroke-linecap="round"/>
<path d="M119.809 29.2344H135.815" stroke="#009551" stroke-width="3" stroke-linecap="round"/>
<path d="M172.311 29.2344H188.317" stroke="#009551" stroke-width="3" stroke-linecap="round"/>
<path d="M30.1719 145.762L100.601 145.762" stroke="#009551" stroke-width="3" stroke-linecap="round"/>
<path d="M30.1719 161.129L100.601 161.129" stroke="#009551" stroke-width="3" stroke-linecap="round"/>
<path d="M30.1719 127.836L100.601 127.836" stroke="#009551" stroke-width="3" stroke-linecap="round"/>
<path d="M133.254 134.238L151.181 134.238" stroke="#009551" stroke-width="3" stroke-linecap="round"/>
<path d="M172.311 134.238L190.238 134.238" stroke="#009551" stroke-width="3" stroke-linecap="round"/>
<path d="M172.311 179.695L190.238 179.695" stroke="#009551" stroke-width="3" stroke-linecap="round"/>
<path d="M172.311 161.129L190.238 161.129" stroke="#009551" stroke-width="3" stroke-linecap="round"/>
<path d="M133.254 152.805L151.182 152.805" stroke="#009551" stroke-width="3" stroke-linecap="round"/>
<path d="M172.311 152.805L190.238 152.805" stroke="#009551" stroke-width="3" stroke-linecap="round"/>
<path d="M133.254 179.695L151.181 179.695" stroke="#009551" stroke-width="3" stroke-linecap="round"/>
<path d="M133.254 161.129L151.181 161.129" stroke="#009551" stroke-width="3" stroke-linecap="round"/>
<path d="M30.1719 93.8984L62.1851 93.8984" stroke="#009551" stroke-width="3" stroke-linecap="round"/>
<path d="M100.601 145.763V127.836" stroke="#009551" stroke-width="3" stroke-linecap="round"/>
<path d="M142.218 152.806V134.238" stroke="#009551" stroke-width="3" stroke-linecap="round"/>
<path d="M181.273 152.806V134.238" stroke="#009551" stroke-width="3" stroke-linecap="round"/>
<path d="M181.273 179.697V161.129" stroke="#009551" stroke-width="3" stroke-linecap="round"/>
<path d="M142.218 179.697V161.129" stroke="#009551" stroke-width="3" stroke-linecap="round"/>
<path d="M133.254 152.806V134.238" stroke="#009551" stroke-width="3" stroke-linecap="round"/>
<path d="M172.311 152.806V134.238" stroke="#009551" stroke-width="3" stroke-linecap="round"/>
<path d="M172.311 179.697V161.129" stroke="#009551" stroke-width="3" stroke-linecap="round"/>
<path d="M133.254 179.697V161.129" stroke="#009551" stroke-width="3" stroke-linecap="round"/>
<path d="M151.182 152.806V134.238" stroke="#009551" stroke-width="3" stroke-linecap="round"/>
<path d="M190.237 152.806V134.238" stroke="#009551" stroke-width="3" stroke-linecap="round"/>
<path d="M190.237 179.697V161.129" stroke="#009551" stroke-width="3" stroke-linecap="round"/>
<path d="M151.182 179.697V161.129" stroke="#009551" stroke-width="3" stroke-linecap="round"/>
<path d="M100.601 179.056V161.129" stroke="#009551" stroke-width="3" stroke-linecap="round"/>
<path d="M83.3135 145.763V127.836" stroke="#009551" stroke-width="3" stroke-linecap="round"/>
<path d="M83.3135 179.056V161.129" stroke="#009551" stroke-width="3" stroke-linecap="round"/>
<path d="M65.3857 145.763V127.836" stroke="#009551" stroke-width="3" stroke-linecap="round"/>
<path d="M65.3857 179.056V161.129" stroke="#009551" stroke-width="3" stroke-linecap="round"/>
<path d="M47.459 145.763V127.836" stroke="#009551" stroke-width="3" stroke-linecap="round"/>
<path d="M30.1719 194.42L30.1719 93.8984" stroke="#009551" stroke-width="3" stroke-linecap="round"/>
<path d="M69.868 98.3829L73.0693 29.2344" stroke="#009551" stroke-width="3" stroke-linecap="round"/>
<path d="M91.6369 111.188L88.4355 29.2344" stroke="#009551" stroke-width="3" stroke-linecap="round"/>
<path d="M139.017 111.828L135.815 29.2344" stroke="#009551" stroke-width="3" stroke-linecap="round"/>
<path d="M191.518 111.828L188.316 29.2344" stroke="#009551" stroke-width="3" stroke-linecap="round"/>
<path d="M116.607 98.3829L119.809 29.2344" stroke="#009551" stroke-width="3" stroke-linecap="round"/>
<path d="M169.109 98.3829L172.311 29.2344" stroke="#009551" stroke-width="3" stroke-linecap="round"/>
<path d="M215.208 194.422L215.208 125.914" stroke="#009551" stroke-width="3" stroke-linecap="round"/>
<path d="M161.426 125.275L161.426 93.9023" stroke="#009551" stroke-width="3" stroke-linecap="round"/>
<path d="M215.208 125.916L161.426 93.9023" stroke="#009551" stroke-width="3" stroke-linecap="round"/>
<path d="M162.066 125.912L108.284 93.8984" stroke="#009551" stroke-width="3" stroke-linecap="round"/>
<path d="M108.284 121.43L62.1846 93.8984" stroke="#009551" stroke-width="3" stroke-linecap="round"/>
<path d="M108.284 120.79L108.284 93.8984" stroke="#009551" stroke-width="3" stroke-linecap="round"/>
<path d="M47.459 179.056V161.129" stroke="#009551" stroke-width="3" stroke-linecap="round"/>
<path d="M81.0731 16.4285C80.1122 10.0258 99.3206 10.0258 100.921 0.421875" stroke="#009551" stroke-width="3"/>
<path d="M129.447 16.4285C128.486 10.0258 147.694 10.0258 149.295 0.421875" stroke="#009551" stroke-width="3"/>
<path d="M182.589 16.4285C181.628 10.0258 200.837 10.0258 202.437 0.421875" stroke="#009551" stroke-width="3"/>
</svg>
