<svg width="201" height="173" viewBox="0 0 201 173" fill="none" xmlns="http://www.w3.org/2000/svg">
<path d="M130.94 138.494C124.081 136.207 127.054 126.375 132.084 126.832H172.099C175.072 127.518 176.198 128.716 176.33 132.205C176.4 135.57 179.645 137.122 180.56 137.579C181.475 138.036 194.051 137.579 194.051 137.579C198.625 137.579 201.369 148.783 194.051 150.841C194.051 150.841 157.236 151.299 154.492 150.841C151.749 150.384 149.804 147.978 149.805 144.667C149.598 141.216 147.176 138.494 145.117 138.494H130.94Z" stroke="#009551" stroke-width="3" stroke-linecap="round"/>
<path d="M67.3741 143.527H55.7123C49.9959 144.213 52.2825 152.445 55.7123 152.674H67.3741C74.234 151.302 71.2614 143.527 67.3741 143.527Z" stroke="#009551" stroke-width="3" stroke-linecap="round"/>
<path d="M97.3291 55.2617C102.969 55.2617 116.079 57.5483 123.397 66.6948" stroke="#009551" stroke-width="3" stroke-linecap="round"/>
<path d="M111.964 58.4651C115.85 7.70214 39.0197 11.5894 53.8841 65.5536" stroke="#009551" stroke-width="3" stroke-linecap="round"/>
<path d="M23.6999 76.5293C21.5657 66.0108 23.8828 45.5228 52.0539 47.7179" stroke="#009551" stroke-width="3" stroke-linecap="round"/>
<path d="M90.0117 23.2499C102.131 -13.1073 160.668 0.61245 146.72 45.2014" stroke="#009551" stroke-width="3" stroke-linecap="round"/>
<path d="M148.777 27.1387C158.991 25.7668 179.692 29.5168 177.131 55.4928" stroke="#009551" stroke-width="3" stroke-linecap="round"/>
<path d="M176.675 44.2883C198.855 38.5715 212.346 78.3586 176.675 79.045H151.064" stroke="#009551" stroke-width="3" stroke-linecap="round"/>
<path d="M118.137 73.5568C142.603 42.9162 166.613 91.3925 138.945 99.1667H15.9251C-2.13938 96.4229 -5.56885 63.4957 23.4709 64.639" stroke="#009551" stroke-width="3" stroke-linecap="round"/>
<path d="M34.9038 122.489H6.54982C-0.996304 119.516 3.11966 112.199 6.54982 112.199L99.1575 112.199C107.161 114.714 103.045 123.632 99.1575 123.632H79.2639C73.7761 124.776 74.0047 133.693 79.2639 134.379H89.7824C92.9836 134.608 95.3735 137.544 95.3846 141.925C95.7105 146.735 96.908 148.546 101.444 149.7H116.078C122.481 150.386 120.88 160.218 116.078 160.218H79.9499C76.7937 160.636 75.8618 161.927 75.2624 165.592C74.9263 169.387 73.7232 170.365 70.5748 170.965H8.60752C1.06169 168.679 3.34831 159.075 8.60752 159.075H32.1598C38.5622 157.932 37.6475 148.785 32.1598 148.328H22.5561C15.9247 147.184 16.8393 137.123 22.5561 137.123H34.9038C44.0501 134.608 41.5348 122.946 34.9038 122.489Z" stroke="#009551" stroke-width="3" stroke-linecap="round"/>
</svg>
