<svg width="37" height="48" viewBox="0 0 37 48" fill="none" xmlns="http://www.w3.org/2000/svg">
<g id="pdf" clip-path="url(#clip0_4391_640)">
<g id="Vector">
<path d="M22.76 26.31C21.83 25.58 20.95 24.83 20.37 24.25C19.61 23.49 18.93 22.75 18.34 22.05C19.26 19.21 19.58 18.15 19.66 16.96C19.88 13.85 18.46 12.96 16.66 12.96C15.29 12.96 13.66 13.67 13.66 17.06C13.66 18.55 14.48 20.36 16.1 22.47C15.7 23.68 15.24 25.08 14.71 26.65C14.46 27.4 14.18 28.1 13.9 28.75C13.66 28.85 13.44 28.96 13.22 29.07C12.43 29.47 11.67 29.82 10.97 30.16C7.78 31.67 5.67 32.67 5.67 34.65C5.67 36.08 6.9 37.24 8.67 36.97C10.34 36.71 13.34 34.49 15.39 30.3C17.52 29.46 20.17 28.84 22.25 28.45C23.92 29.74 25.78 30.85 26.67 30.97C28.67 31.24 29.78 29.81 29.67 28.33C29.42 25.06 24.73 26.12 22.76 26.31ZM8.9 35.07C8.41 35.27 7.83 35.09 7.67 34.64C7.35 33.72 9.78 32.93 11.83 31.96C11.96 31.9 12.09 31.84 12.23 31.77C10.72 33.95 9.42 34.85 8.9 35.07ZM15.67 17.05C15.43 14.38 17.91 14.41 17.67 16.95C17.63 17.37 17.39 18.43 16.87 20.07C16.08 18.87 15.74 17.83 15.67 17.05ZM16.43 27.8C16.49 27.63 16.55 27.45 16.61 27.27C16.98 26.16 17.32 25.16 17.61 24.26C18.03 24.72 18.47 25.18 18.95 25.66C19.14 25.85 19.6 26.27 20.22 26.8C19 27.07 17.69 27.4 16.43 27.8ZM27.67 28.32C27.88 28.72 27.34 29.18 26.74 28.96C26.48 28.86 25.84 28.53 25.06 28C25.34 27.97 25.55 27.95 25.67 27.95C27.14 27.96 27.48 27.96 27.67 28.32Z" fill="#919499"/>
<path d="M25.69 0H0V48H37V11L25.69 0ZM26 3.41L33.49 11H26V3.41ZM35 46H2V2H24V13H35V46Z" fill="#919499"/>
</g>
</g>
<defs>
<clipPath id="clip0_4391_640">
<rect width="37" height="48" fill="white"/>
</clipPath>
</defs>
</svg>
