<svg width="203" height="165" viewBox="0 0 203 165" fill="none" xmlns="http://www.w3.org/2000/svg">
<path d="M45.3242 17.5978C45.3242 17.5978 45.3242 7.56482 45.3242 2.42188" stroke="#009551" stroke-width="3" stroke-linecap="round"/>
<path d="M184.845 95.4341C184.845 95.4341 184.845 34.2655 184.845 2.91016" stroke="#009551" stroke-width="3" stroke-linecap="round"/>
<path d="M173.586 85.6453C173.586 85.6453 173.586 37.4224 173.586 12.7031" stroke="#009551" stroke-width="3" stroke-linecap="round"/>
<path d="M184.845 95.4336L201 110.609" stroke="#009551" stroke-width="3" stroke-linecap="round"/>
<path d="M201 110.609V120.645" stroke="#009551" stroke-width="3" stroke-linecap="round"/>
<path d="M184.845 2.42187L45.3242 2.42188" stroke="#009551" stroke-width="3" stroke-linecap="round"/>
<path d="M92.3213 64.5937L30.6387 64.5938" stroke="#009551" stroke-width="3" stroke-linecap="round"/>
<path d="M66.3749 104.738L56.584 104.738" stroke="#009551" stroke-width="3" stroke-linecap="round"/>
<path d="M66.6201 104.738L66.6201 130.929" stroke="#009551" stroke-width="3" stroke-linecap="round"/>
<path d="M56.584 104.738V130.819" stroke="#009551" stroke-width="3" stroke-linecap="round"/>
<path d="M30.6496 64.5921C29.4261 40.3597 40.6741 32.0374 48.5087 27.3867" stroke="#009551" stroke-width="3" stroke-linecap="round"/>
<path d="M92.5565 64.5921C93.7799 40.3597 82.532 32.0374 74.6974 27.3867" stroke="#009551" stroke-width="3" stroke-linecap="round"/>
<path d="M173.586 12.7031L57.0742 12.7031" stroke="#009551" stroke-width="3" stroke-linecap="round"/>
<path d="M173.585 85.6445L94.2791 85.6445" stroke="#009551" stroke-width="3" stroke-linecap="round"/>
<path d="M201 120.648H125.854" stroke="#009551" stroke-width="3" stroke-linecap="round"/>
<path d="M129.527 110.609H119.246" stroke="#009551" stroke-width="3" stroke-linecap="round"/>
<path d="M149.598 110.609H139.317" stroke="#009551" stroke-width="3" stroke-linecap="round"/>
<path d="M170.648 110.609H160.367" stroke="#009551" stroke-width="3" stroke-linecap="round"/>
<path d="M189.251 110.609H178.971" stroke="#009551" stroke-width="3" stroke-linecap="round"/>
<path d="M128.547 99.3516H118.267" stroke="#009551" stroke-width="3" stroke-linecap="round"/>
<path d="M118.756 104.738H108.476" stroke="#009551" stroke-width="3" stroke-linecap="round"/>
<path d="M139.318 104.738H129.037" stroke="#009551" stroke-width="3" stroke-linecap="round"/>
<path d="M159.878 104.738H149.598" stroke="#009551" stroke-width="3" stroke-linecap="round"/>
<path d="M178.481 104.738H168.2" stroke="#009551" stroke-width="3" stroke-linecap="round"/>
<path d="M149.108 99.3516H138.828" stroke="#009551" stroke-width="3" stroke-linecap="round"/>
<path d="M168.2 99.3516H157.92" stroke="#009551" stroke-width="3" stroke-linecap="round"/>
<path d="M52.9124 48.1949L48.2617 26.4102" stroke="#009551" stroke-width="3" stroke-linecap="round"/>
<path d="M48.2617 26.4078C48.2617 20.778 74.6971 20.2885 74.6971 26.4078" stroke="#009551" stroke-width="3" stroke-linecap="round"/>
<path d="M74.6969 26.4102L70.291 47.9501" stroke="#009551" stroke-width="3" stroke-linecap="round"/>
<path d="M35.042 64.5938C33.3313 111.59 91.3415 104.002 86.9337 64.5938" stroke="#009551" stroke-width="3" stroke-linecap="round"/>
<path d="M82.2849 104.738L66.8643 130.929" stroke="#009551" stroke-width="3" stroke-linecap="round"/>
<path d="M40.9185 104.738L56.584 130.929" stroke="#009551" stroke-width="3" stroke-linecap="round"/>
<path d="M2 162.994C6.16113 133.132 5.18204 121.383 12.5252 115.998C17.7819 111.094 25.9537 110.006 40.9188 104.738" stroke="#009551" stroke-width="3" stroke-linecap="round"/>
<path d="M122.917 162.749C117.042 132.642 117.777 120.648 111.168 115.508C105.538 111.837 97.4947 110.006 82.5295 104.738" stroke="#009551" stroke-width="3" stroke-linecap="round"/>
<path d="M95.9922 149.285V162.992" stroke="#009551" stroke-width="3" stroke-linecap="round"/>
<path d="M28.1906 149.285V162.992" stroke="#009551" stroke-width="3" stroke-linecap="round"/>
</svg>
