<svg width="199" height="197" viewBox="0 0 199 197" fill="none" xmlns="http://www.w3.org/2000/svg">
<path d="M94.6329 161.025H72.8602C68.3271 160.179 66.9988 158.981 70.8809 153.108L81.1734 137.273M81.1734 137.273L83.5486 147.962M81.1734 137.273L70.485 140.045" stroke="#009551" stroke-width="3" stroke-linecap="round"/>
<path d="M118.767 136.876L129.653 155.732C130.261 156.669 129.965 160.982 122.938 160.557L104.927 160.409M104.927 160.409L112.995 153.007M104.927 160.409L112.671 168.279" stroke="#009551" stroke-width="3" stroke-linecap="round"/>
<path d="M92.2578 39.8888C93.4011 23.0221 98.7455 17.9025 116.208 16.1367" stroke="#009551" stroke-width="3" stroke-linecap="round"/>
<path d="M78.7979 55.7227H119.176" stroke="#009551" stroke-width="3" stroke-linecap="round"/>
<path d="M82.7568 39.8906L115.218 39.8906" stroke="#009551" stroke-width="3" stroke-linecap="round"/>
<path d="M2 181.215H197.163" stroke="#009551" stroke-width="3" stroke-linecap="round"/>
<path d="M55.4424 96.8945L143.325 96.8945" stroke="#009551" stroke-width="3" stroke-linecap="round"/>
<path d="M55.4424 83.4336L143.325 83.4336" stroke="#009551" stroke-width="3" stroke-linecap="round"/>
<path d="M2 195.07H197.163" stroke="#009551" stroke-width="3" stroke-linecap="round"/>
<path d="M197.162 181.215V195.07" stroke="#009551" stroke-width="3" stroke-linecap="round"/>
<path d="M2 181.215V195.07" stroke="#009551" stroke-width="3" stroke-linecap="round"/>
<path d="M14.668 181.213V123.812" stroke="#009551" stroke-width="3" stroke-linecap="round"/>
<path d="M184.099 181.213V123.812" stroke="#009551" stroke-width="3" stroke-linecap="round"/>
<path d="M55.4424 181.214L55.4424 96.8945" stroke="#009551" stroke-width="3" stroke-linecap="round"/>
<path d="M143.324 181.214L143.324 96.8945" stroke="#009551" stroke-width="3" stroke-linecap="round"/>
<path d="M44.7536 140.836H25.752" stroke="#009551" stroke-width="3" stroke-linecap="round"/>
<path d="M173.014 140.836H154.013" stroke="#009551" stroke-width="3" stroke-linecap="round"/>
<path d="M28.127 181.213V161.023" stroke="#009551" stroke-width="3" stroke-linecap="round"/>
<path d="M24.96 109.958V84.2266" stroke="#009551" stroke-width="3" stroke-linecap="round"/>
<path d="M159.951 109.958V84.2266" stroke="#009551" stroke-width="3" stroke-linecap="round"/>
<path d="M156.784 181.213V161.023" stroke="#009551" stroke-width="3" stroke-linecap="round"/>
<path d="M41.9824 181.213V161.023" stroke="#009551" stroke-width="3" stroke-linecap="round"/>
<path d="M38.8154 109.958V84.2266" stroke="#009551" stroke-width="3" stroke-linecap="round"/>
<path d="M173.807 109.958V84.2266" stroke="#009551" stroke-width="3" stroke-linecap="round"/>
<path d="M170.64 181.213V161.023" stroke="#009551" stroke-width="3" stroke-linecap="round"/>
<path d="M55.4422 123.813L11.501 123.812" stroke="#009551" stroke-width="3" stroke-linecap="round"/>
<path d="M143.324 123.813L187.266 123.812" stroke="#009551" stroke-width="3" stroke-linecap="round"/>
<path d="M11.5013 123.815C9.05907 123.451 8.15764 122.859 7.93848 120.648" stroke="#009551" stroke-width="3" stroke-linecap="round"/>
<path d="M187.266 123.815C189.709 123.451 190.61 122.859 190.829 120.648" stroke="#009551" stroke-width="3" stroke-linecap="round"/>
<path d="M7.93848 120.645V113.52" stroke="#009551" stroke-width="3" stroke-linecap="round"/>
<path d="M190.829 120.645V113.52" stroke="#009551" stroke-width="3" stroke-linecap="round"/>
<path d="M7.93848 113.52C7.9772 110.8 8.90751 110.066 11.8971 109.957" stroke="#009551" stroke-width="3" stroke-linecap="round"/>
<path d="M190.829 113.52C190.79 110.8 189.86 110.066 186.87 109.957" stroke="#009551" stroke-width="3" stroke-linecap="round"/>
<path d="M11.8965 109.957H55.4419" stroke="#009551" stroke-width="3" stroke-linecap="round"/>
<path d="M186.87 109.957H143.325" stroke="#009551" stroke-width="3" stroke-linecap="round"/>
<path d="M28.127 161.024C28.2571 158.458 28.9316 157.579 31.6898 157.461" stroke="#009551" stroke-width="3" stroke-linecap="round"/>
<path d="M24.96 84.2256C25.0901 81.0894 25.7646 80.0153 28.5228 79.8711" stroke="#009551" stroke-width="3" stroke-linecap="round"/>
<path d="M159.951 84.2256C160.081 81.0894 160.756 80.0153 163.514 79.8711" stroke="#009551" stroke-width="3" stroke-linecap="round"/>
<path d="M156.784 161.024C156.914 158.458 157.589 157.579 160.347 157.461" stroke="#009551" stroke-width="3" stroke-linecap="round"/>
<path d="M41.9824 161.024C41.8522 158.458 41.1778 157.579 38.4196 157.461" stroke="#009551" stroke-width="3" stroke-linecap="round"/>
<path d="M38.8154 84.2256C38.6853 81.0894 38.0108 80.0153 35.2526 79.8711" stroke="#009551" stroke-width="3" stroke-linecap="round"/>
<path d="M173.807 84.2256C173.676 81.0894 173.002 80.0153 170.244 79.8711" stroke="#009551" stroke-width="3" stroke-linecap="round"/>
<path d="M170.64 161.024C170.509 158.458 169.835 157.579 167.077 157.461" stroke="#009551" stroke-width="3" stroke-linecap="round"/>
<path d="M31.6904 157.461H38.4202" stroke="#009551" stroke-width="3" stroke-linecap="round"/>
<path d="M28.5234 79.8711H35.2532" stroke="#009551" stroke-width="3" stroke-linecap="round"/>
<path d="M163.514 79.8711H170.243" stroke="#009551" stroke-width="3" stroke-linecap="round"/>
<path d="M160.347 157.461H167.076" stroke="#009551" stroke-width="3" stroke-linecap="round"/>
<path d="M55.4417 83.4349C53.0024 83.3692 51.877 83.5975 51.8789 86.206" stroke="#009551" stroke-width="3" stroke-linecap="round"/>
<path d="M143.325 83.4427C145.764 83.3771 146.89 83.6053 146.888 86.2138" stroke="#009551" stroke-width="3" stroke-linecap="round"/>
<path d="M55.4417 96.8932C53.0024 96.9589 51.877 96.7307 51.8789 94.1222" stroke="#009551" stroke-width="3" stroke-linecap="round"/>
<path d="M143.325 96.905C145.764 96.9706 146.89 96.7424 146.888 94.1339" stroke="#009551" stroke-width="3" stroke-linecap="round"/>
<path d="M51.8789 86.207V94.1244" stroke="#009551" stroke-width="3" stroke-linecap="round"/>
<path d="M146.888 86.2148V94.1322" stroke="#009551" stroke-width="3" stroke-linecap="round"/>
<path d="M63.1611 83.436C75.6058 69.2423 78.816 59.1091 82.5586 39.8906" stroke="#009551" stroke-width="3" stroke-linecap="round"/>
<path d="M135.803 83.436C123.358 69.2423 118.96 59.1091 115.218 39.8906" stroke="#009551" stroke-width="3" stroke-linecap="round"/>
<path d="M116.208 16.139C124.362 2.80493 131.097 0.567635 146.69 5.25267" stroke="#009551" stroke-width="3" stroke-linecap="round"/>
<path d="M146.689 5.25148C182.318 -10.979 182.318 48.5991 146.689 32.9622" stroke="#009551" stroke-width="3" stroke-linecap="round"/>
<path d="M146.69 32.9609C138.838 46.9897 132.045 49.3746 116.208 45.0349" stroke="#009551" stroke-width="3" stroke-linecap="round"/>
<path d="M85.5283 127.375L95.8209 111.936C98.404 108.695 100.024 108.786 103.144 111.936L112.447 126.584M112.447 126.584L113.635 115.895M112.447 126.584L102.353 125" stroke="#009551" stroke-width="3" stroke-linecap="round"/>
</svg>
