<svg width="134" height="200" viewBox="0 0 134 200" fill="none" xmlns="http://www.w3.org/2000/svg">
<path d="M2.00049 23.1875V198.029" stroke="#009551" stroke-width="3" stroke-linecap="round"/>
<path d="M2.00049 198.031H115.657" stroke="#009551" stroke-width="3" stroke-linecap="round"/>
<path d="M48.73 164.766L85.5595 164.766" stroke="#009551" stroke-width="3" stroke-linecap="round"/>
<path d="M26.1577 147.34L105.757 147.34" stroke="#009551" stroke-width="3" stroke-linecap="round"/>
<path d="M115.658 198.032C124.391 196.811 128.221 193.838 132.092 182.191" stroke="#009551" stroke-width="3" stroke-linecap="round"/>
<path d="M132.092 182.189V38.0391" stroke="#009551" stroke-width="3" stroke-linecap="round"/>
<path d="M132.092 38.0379C130.476 29.9111 128.004 26.2784 116.845 23.7812" stroke="#009551" stroke-width="3" stroke-linecap="round"/>
<path d="M116.845 23.7846H2.00049M2.00049 23.1905L106.945 2.59766" stroke="#009551" stroke-width="3" stroke-linecap="round"/>
<path d="M106.945 2.596C119.194 1.21684 120.656 7.98327 120.013 24.5749" stroke="#009551" stroke-width="3" stroke-linecap="round"/>
<circle cx="66.9475" cy="93.0859" r="34.9335" stroke="#009551" stroke-width="3"/>
<path d="M33.6821 79.6211H100.213" stroke="#009551" stroke-width="3" stroke-linecap="round"/>
<path d="M33.6821 105.758H100.213" stroke="#009551" stroke-width="3" stroke-linecap="round"/>
<path d="M60.6111 57.8398C47.8349 85.243 48.2608 100.683 60.6111 128.331" stroke="#009551" stroke-width="3" stroke-linecap="round"/>
<path d="M72.8879 128.332C85.6641 100.929 85.2383 85.4886 72.8879 57.841" stroke="#009551" stroke-width="3" stroke-linecap="round"/>
</svg>
