<svg width="79" height="70" viewBox="0 0 79 70" fill="none" xmlns="http://www.w3.org/2000/svg">
<rect width="79" height="70" fill="#1E1E1E"/>
<g id="&#208;&#154;&#208;&#190;&#208;&#188;&#208;&#191;&#208;&#176;&#208;&#189;&#208;&#184;&#209;&#143;" clip-path="url(#clip0_0_1)">
<rect width="1920" height="8334" transform="translate(-1765 -1386)" fill="white"/>
<g id="company">
<g id="Group 1171275103">
<g id="Quoting_block">
<g id="frame">
<g id="Quoting">
<path id="icont 1" d="M0.612297 69.3242L0.612298 57.0038C6.95836 55.9231 11.4006 53.6536 13.939 50.1952C16.4775 46.7368 17.7467 40.5767 17.7467 31.7146L1.56422 31.7146L1.56422 0.913651L32.6599 0.913654L32.6599 26.8513C32.6599 40.2524 30.2273 50.6275 25.3619 57.9765C20.4966 65.5416 12.2467 69.3242 0.612297 69.3242ZM46.304 69.3242L46.304 57.0038C52.65 55.9231 57.0923 53.6536 59.6307 50.1952C62.1691 46.7368 63.4383 40.5767 63.4383 31.7146L47.2559 31.7146L47.2559 0.913655L78.3516 0.913658L78.3516 26.8513C78.3516 40.2524 75.9189 50.6275 71.0536 57.9765C66.1883 65.5416 57.9384 69.3242 46.304 69.3242Z" fill="url(#paint0_linear_0_1)"/>
</g>
</g>
</g>
</g>
</g>
</g>
<defs>
<linearGradient id="paint0_linear_0_1" x1="191.073" y1="244.626" x2="-2.10857" y2="0.913654" gradientUnits="userSpaceOnUse">
<stop stop-color="#569A59" stop-opacity="0.64"/>
<stop offset="1" stop-color="#569A59" stop-opacity="0.14"/>
</linearGradient>
<clipPath id="clip0_0_1">
<rect width="1920" height="8334" fill="white" transform="translate(-1765 -1386)"/>
</clipPath>
</defs>
</svg>
