<svg width="78" height="70" viewBox="0 0 78 70" fill="none" xmlns="http://www.w3.org/2000/svg">
<path d="M77.7393 0.667969V12.9883C71.3932 14.0691 66.951 16.3386 64.4125 19.797C61.8741 23.2553 60.6049 29.4155 60.6049 38.2776H76.7873L76.7873 69.0785L45.6917 69.0785V43.1409C45.6917 29.7398 48.1243 19.3647 52.9896 12.0157C57.8549 4.45054 66.1048 0.667969 77.7393 0.667969ZM32.0476 0.667969V12.9883C25.7015 14.0691 21.2593 16.3386 18.7209 19.797C16.1825 23.2553 14.9132 29.4155 14.9132 38.2776L31.0957 38.2776L31.0957 69.0785H0L0 43.1409C0 29.7398 2.43266 19.3647 7.29797 12.0157C12.1633 4.45054 20.4132 0.667969 32.0476 0.667969Z" fill="url(#paint0_linear_460_1241)"/>
<defs>
<linearGradient id="paint0_linear_460_1241" x1="-112.722" y1="-174.634" x2="80.4601" y2="69.0785" gradientUnits="userSpaceOnUse">
<stop stop-color="#569A59" stop-opacity="0.64"/>
<stop offset="1" stop-color="#569A59" stop-opacity="0.14"/>
</linearGradient>
</defs>
</svg>
