<svg width="130" height="68" viewBox="0 0 130 68" fill="none" xmlns="http://www.w3.org/2000/svg">
<g clip-path="url(#clip0_936_66)">
<path fill-rule="evenodd" clip-rule="evenodd" d="M49.5544 50.3729V49.2213H46.6273V50.3729H46.2854V47.9023H46.6273V48.9736H49.5544V47.9023H49.8922V50.3729H49.5544Z" fill="#201C26"/>
<path fill-rule="evenodd" clip-rule="evenodd" d="M51.0435 50.3729V47.9023H53.959V48.1487H51.38V48.9736H53.8909V49.218H51.38V50.1252H53.959V50.3729H51.0435Z" fill="#201C26"/>
<path fill-rule="evenodd" clip-rule="evenodd" d="M59.8757 49.2812V48.9734C59.8757 48.3861 59.5844 48.0905 58.6611 48.0905H57.6562V47.8711H57.3136V48.0905H56.3208C55.3915 48.0905 55.1001 48.3369 55.1001 48.9734V49.2812C55.1001 49.9097 55.4292 50.127 56.3208 50.127H57.3136V50.37H57.6562V50.127H58.6611C59.5473 50.127 59.8757 49.9211 59.8757 49.2812ZM59.5324 49.2812C59.5324 49.7571 59.3025 49.8827 58.6611 49.8827H57.6562V48.3375H58.6611C59.2701 48.3375 59.5324 48.4806 59.5324 48.9599V49.2812ZM57.3136 49.8827H56.3208C55.6788 49.8827 55.4339 49.7571 55.4339 49.2778V48.9491C55.4339 48.4766 55.7024 48.3375 56.3208 48.3375H57.3136V49.8827Z" fill="#201C26"/>
<path fill-rule="evenodd" clip-rule="evenodd" d="M62.4803 48.1487V50.3729H62.8209V48.1487H64.4307V47.9023H60.8826V48.1487H62.4803Z" fill="#201C26"/>
<path fill-rule="evenodd" clip-rule="evenodd" d="M68.7275 50.3722V47.9023H66.5086C65.6892 47.9023 65.3513 48.1055 65.3513 48.6671C65.3513 49.1316 65.6892 49.3482 66.3353 49.3482L65.2151 50.3729H65.6892L66.7433 49.3482H68.3842V50.3729L68.7275 50.3722ZM68.3842 49.1039H66.4014C65.874 49.1039 65.6899 49.035 65.6899 48.6671C65.6899 48.2837 65.8828 48.1481 66.3677 48.1481H68.3842V49.1039Z" fill="#201C26"/>
<path fill-rule="evenodd" clip-rule="evenodd" d="M73.2355 50.3729V49.2213H70.3106V50.3729H69.97V47.9023H70.3106V48.9736H73.2355V47.9023H73.5775V50.3729H73.2355Z" fill="#201C26"/>
<path fill-rule="evenodd" clip-rule="evenodd" d="M78.417 50.3722L76.7107 47.9023H76.1866L74.4817 50.3722H74.858L75.2816 49.7526H77.5975L78.017 50.3722H78.417ZM77.4195 49.5001H75.4664L76.4402 48.0792L77.4195 49.5001Z" fill="#201C26"/>
<path fill-rule="evenodd" clip-rule="evenodd" d="M82.3077 50.3729V49.3482H80.6675L79.608 50.3729H79.1406L80.2528 49.3482C79.608 49.3482 79.2742 49.1316 79.2742 48.6671C79.2742 48.1055 79.608 47.9023 80.4274 47.9023H82.651V50.3722L82.3077 50.3729ZM82.3077 48.1487H80.2919C79.8083 48.1487 79.608 48.2837 79.608 48.6678C79.608 49.0364 79.7941 49.1046 80.3242 49.1046H82.3077V48.1487Z" fill="#201C26"/>
<path fill-rule="evenodd" clip-rule="evenodd" d="M88.9704 50.3729H89.5686L87.1865 49.0782L89.5153 47.9023H88.9117L86.8325 48.9621H86.2794V47.9023H85.9375V50.3729H86.2794V49.2105H86.8466L88.9704 50.3729Z" fill="#201C26"/>
<path fill-rule="evenodd" clip-rule="evenodd" d="M94.001 49.5235C94.001 50.0069 93.8398 50.1236 93.1479 50.1236H91.7066C91.0652 50.1236 90.8258 49.9994 90.8258 49.5235V48.7351C90.8258 48.2545 91.0882 48.1242 91.7066 48.1242H93.1479C93.8048 48.1242 94.001 48.2464 94.001 48.7351V49.5235ZM94.3389 49.5235V48.7506C94.3389 48.0324 93.9464 47.8711 93.1479 47.8711H91.71C90.7746 47.8711 90.4839 48.1235 90.4839 48.7506V49.5235C90.4839 50.1581 90.8157 50.3707 91.71 50.3707H93.1479C94.0233 50.3707 94.3389 50.2269 94.3389 49.5235Z" fill="#201C26"/>
<path fill-rule="evenodd" clip-rule="evenodd" d="M99.5193 47.9023H100.252V50.3729H99.9104V48.1028H99.7209L97.9431 50.3729H97.7685L95.9934 48.1028H95.8012V50.3729H95.4619V47.9023H96.1903L97.8602 50.0091L99.5193 47.9023Z" fill="#201C26"/>
<path fill-rule="evenodd" clip-rule="evenodd" d="M101.819 50.3729V48.1487H104.737V50.3729H105.081V47.9023H101.473V50.3729H101.819Z" fill="#201C26"/>
<path fill-rule="evenodd" clip-rule="evenodd" d="M109.522 50.3722L109.104 49.7526H106.788L106.358 50.3722H105.982L107.691 47.9023H108.209L109.915 50.3722H109.522ZM107.949 48.0785L106.968 49.4994H108.925L107.949 48.0785Z" fill="#201C26"/>
<path fill-rule="evenodd" clip-rule="evenodd" d="M114.498 50.3729V47.9023H114.159V48.9736H111.238V47.9023H110.892V50.3729H111.238V49.2213H114.159V50.3729H114.498Z" fill="#201C26"/>
<path fill-rule="evenodd" clip-rule="evenodd" d="M119.277 50.3729V47.9023H118.612L116.009 50.1805H115.979V47.9023H115.643V50.3729H116.197L118.807 48.0934H118.933V50.3729H119.277Z" fill="#201C26"/>
<path fill-rule="evenodd" clip-rule="evenodd" d="M123.397 49.1039H121.409C120.879 49.1039 120.701 49.035 120.701 48.6671C120.701 48.2837 120.888 48.1481 121.372 48.1481H123.397V49.1039ZM123.732 50.3722V47.9023H121.515C120.701 47.9023 120.359 48.1055 120.359 48.6671C120.359 49.1316 120.701 49.3482 121.345 49.3482L120.221 50.3729H120.701L121.75 49.3482H123.397V50.3729L123.732 50.3722Z" fill="#201C26"/>
<path fill-rule="evenodd" clip-rule="evenodd" d="M46.2555 54.0307C46.2555 54.0307 53.6715 53.9308 54.2657 54.329C54.8592 54.7219 55.452 55.1229 55.5512 55.9106C55.6496 56.7031 55.156 59.1737 53.2763 59.2743C51.3994 59.3728 49.2271 59.1737 49.2271 59.1737L49.13 61.1535L46.1638 61.055L46.2555 54.0307Z" fill="#201C26"/>
<path fill-rule="evenodd" clip-rule="evenodd" d="M49.3228 56.0067L49.2271 57.1961C49.2271 57.1961 51.597 57.6888 52.0907 57.1961C52.585 56.7026 52.1885 55.9102 51.4001 55.9102C50.611 55.9102 49.3228 56.0067 49.3228 56.0067Z" fill="white"/>
<path fill-rule="evenodd" clip-rule="evenodd" d="M55.552 55.9104C56.3465 55.0214 57.729 53.6349 60.8867 53.8313C64.0504 54.0304 65.7345 55.313 65.7345 56.8055C65.7345 58.2844 65.8282 60.2622 63.9506 60.8529C62.075 61.4496 60.1941 61.4496 58.9106 61.2552C57.6252 61.0547 55.552 59.8653 55.2566 58.2851C54.9592 56.7022 55.552 55.9104 55.552 55.9104Z" fill="#241C24"/>
<path fill-rule="evenodd" clip-rule="evenodd" d="M58.5188 57.7893C58.338 56.5115 59.405 55.7109 60.2945 55.7109C61.1827 55.7109 62.6618 55.8115 62.564 57.4943C62.4675 59.1745 62.3724 59.0752 61.4835 59.3736C60.5933 59.6699 58.8135 59.9696 58.5188 57.7893Z" fill="white"/>
<path fill-rule="evenodd" clip-rule="evenodd" d="M76.3028 56.807C75.8112 55.9119 74.7274 54.227 73.0433 54.1319C71.364 54.0319 69.0892 53.8328 68.0033 54.227C66.9135 54.6266 66.0313 55.6122 65.831 56.5025C65.6347 57.3956 65.4311 59.3741 66.7192 60.2638C68.0027 61.1541 70.0833 61.8487 72.0566 61.4511C74.0293 61.0562 75.909 60.2638 76.2057 58.5816H72.8477C72.8477 58.5816 71.9541 59.7703 70.871 59.6704C70.871 59.6704 69.8762 59.9701 69.187 58.9826C68.499 57.9883 68.5955 57.0993 69.2854 56.2075C69.9835 55.3145 71.857 55.6115 72.056 56.0084C72.2522 56.4053 72.549 56.9973 72.549 56.9973L76.3028 56.807Z" fill="#241C24"/>
<path fill-rule="evenodd" clip-rule="evenodd" d="M76.0095 54.227H79.0748V56.6044H82.1333V54.0312H85.299V61.1541H82.3316V58.78H79.1739V61.1541H75.9097L76.0095 54.227Z" fill="#241C24"/>
<path fill-rule="evenodd" clip-rule="evenodd" d="M86.2903 54.0312L95.0855 54.1318V55.9119H89.7501V56.6044H94.198V58.5816H89.5498V59.476H95.2818V61.3525H86.3874L86.2903 54.0312Z" fill="#241C24"/>
<path fill-rule="evenodd" clip-rule="evenodd" d="M99.6306 54.0312H102.695C102.695 54.0312 102.5 54.5274 102.899 54.4295C103.288 54.3303 105.957 54.2263 106.751 55.2206C107.539 56.2075 107.838 57.4941 107.044 58.3851C106.25 59.2762 105.559 59.6704 105.071 59.6704C104.571 59.6704 102.899 59.7696 102.899 59.7696V61.3525H99.6306V59.6704C99.6306 59.6704 97.554 59.5712 96.8627 59.374C96.1741 59.1749 94.886 58.3851 94.886 57.0999C94.886 55.8126 95.578 54.7231 96.57 54.6266C97.554 54.5281 99.433 54.5281 99.433 54.5281L99.6306 54.0312Z" fill="#241C24"/>
<path fill-rule="evenodd" clip-rule="evenodd" d="M99.6306 56.206L99.5321 57.689C99.5321 57.689 97.9519 57.8881 97.9519 57.2981C97.9519 56.7021 98.25 56.1081 99.6306 56.206Z" fill="white"/>
<path fill-rule="evenodd" clip-rule="evenodd" d="M102.898 56.3055L102.992 57.6906C102.992 57.6906 103.882 58.0882 104.379 57.3949C104.868 56.703 103.979 56.2069 102.898 56.3055Z" fill="white"/>
<path fill-rule="evenodd" clip-rule="evenodd" d="M109.118 56.2054V61.4489H112.279V56.2054H115.144L115.742 55.4163L114.853 54.3281H106.551C106.553 54.3281 106.154 55.9097 107.042 56.0062C107.931 56.1075 109.118 56.2054 109.118 56.2054Z" fill="#241C24"/>
<path fill-rule="evenodd" clip-rule="evenodd" d="M118.308 54.3281V56.3039C118.308 56.3039 122.067 56.1075 122.76 56.5003C123.451 56.8973 124.143 57.4926 124.241 58.1812C124.34 58.8778 124.143 59.9679 123.451 60.5586C122.76 61.1519 121.972 61.5468 121.175 61.5468H115.447V54.4274L118.308 54.3281Z" fill="#241C24"/>
<path fill-rule="evenodd" clip-rule="evenodd" d="M118.61 58.3856V59.5716H120.583C121.075 59.5716 121.77 58.4842 120.878 58.2871C119.991 58.0886 118.61 58.3856 118.61 58.3856Z" fill="white"/>
<path fill-rule="evenodd" clip-rule="evenodd" d="M5.73535 21.3867H10.778V38.5019L5.73535 34.0481V21.3867Z" fill="#241C24"/>
<path fill-rule="evenodd" clip-rule="evenodd" d="M11.7673 15.75H16.6097V44.0436L11.7673 39.3879V15.75Z" fill="#241C24"/>
<path fill-rule="evenodd" clip-rule="evenodd" d="M17.5999 10.1133H22.5421V36.9198H17.5999V10.1133Z" fill="#241C24"/>
<path fill-rule="evenodd" clip-rule="evenodd" d="M23.5269 4.47266H28.6667V31.3784H23.5269V4.47266Z" fill="#241C24"/>
<path fill-rule="evenodd" clip-rule="evenodd" d="M29.3584 9.8125H34.302V36.9187H29.3584V9.8125Z" fill="#241C24"/>
<path fill-rule="evenodd" clip-rule="evenodd" d="M35.4883 15.6445H40.3307V39.2885L35.4883 44.042V15.6445Z" fill="#241C24"/>
<path fill-rule="evenodd" clip-rule="evenodd" d="M41.2178 21.2852H46.164V33.6522L41.2178 38.5002V21.2852Z" fill="#241C24"/>
<path fill-rule="evenodd" clip-rule="evenodd" d="M17.5999 37.5156H22.5421V62.3369H17.5999V37.5156Z" fill="#B3B31C"/>
<path fill-rule="evenodd" clip-rule="evenodd" d="M23.5269 32.1719H28.3679V62.3352H23.5269V32.1719Z" fill="#B3B31C"/>
<path fill-rule="evenodd" clip-rule="evenodd" d="M29.3584 37.6094H34.302V62.3361H29.3584V37.6094Z" fill="#B3B31C"/>
</g>
<defs>
<clipPath id="clip0_936_66">
<path d="M0 0.324219H120C125.523 0.324219 130 4.80137 130 10.3242V67.3242H10C4.47715 67.3242 0 62.8471 0 57.3242V0.324219Z" fill="white"/>
</clipPath>
</defs>
</svg>
