<svg width="195" height="185" viewBox="0 0 195 185" fill="none" xmlns="http://www.w3.org/2000/svg">
<path d="M74.3914 46.125C71.8849 55.5862 71.968 60.8453 75.7257 70.144" stroke="#009551" stroke-width="3" stroke-linecap="round"/>
<path d="M86.067 9.42742L91.4046 2.42188" stroke="#009551" stroke-width="3" stroke-linecap="round"/>
<path d="M86.0677 9.42819C78.0604 1.08802 61.047 42.4542 74.3918 46.1239" stroke="#009551" stroke-width="3" stroke-linecap="round"/>
<path d="M86.067 9.42578C94.407 14.0961 85.0662 20.7681 83.3982 31.1096C82.0841 39.2571 83.3982 47.7895 74.3911 46.1215" stroke="#009551" stroke-width="3" stroke-linecap="round"/>
<path d="M61.7141 72.813C60.383 55.3283 57.2106 45.8077 46.3687 29.4453" stroke="#009551" stroke-width="3" stroke-linecap="round"/>
<path d="M46.7022 66.8082C51.7246 57.1983 51.5663 48.9352 46.3687 29.4453" stroke="#009551" stroke-width="3" stroke-linecap="round"/>
<path d="M50.7057 79.1511C47.873 64.4709 42.0446 57.6486 24.6851 47.793" stroke="#009551" stroke-width="3" stroke-linecap="round"/>
<path d="M24.6851 47.793C35.0949 66.0746 40.5417 76.1861 36.0274 89.1591" stroke="#009551" stroke-width="3" stroke-linecap="round"/>
<path d="M42.6994 99.1646C27.2056 74.3008 18.0685 66.7783 2.00049 71.1427" stroke="#009551" stroke-width="3" stroke-linecap="round"/>
<path d="M2.00049 71.1445C19.9797 80.991 25.5912 89.1273 30.6899 106.506" stroke="#009551" stroke-width="3" stroke-linecap="round"/>
<path d="M48.7049 83.8213C47.7038 69.1427 109.753 61.4699 116.425 83.8213" stroke="#009551" stroke-width="3" stroke-linecap="round"/>
<path d="M48.7166 83.8194C47.7155 98.4979 109.765 106.171 116.437 83.8194" stroke="#009551" stroke-width="3" stroke-linecap="round"/>
<path d="M57.0432 92.8281C22.6835 106.839 9.33964 120.85 37.3609 137.864" stroke="#009551" stroke-width="3" stroke-linecap="round"/>
<path d="M37.1717 137.863C-2.85985 148.872 8.67296 168.554 60.7142 172.557" stroke="#009551" stroke-width="3" stroke-linecap="round"/>
<path d="M101.413 31.7773C109.591 51.6676 109.526 60.1541 105.082 72.8098" stroke="#009551" stroke-width="3" stroke-linecap="round"/>
<path d="M101.413 31.7773C116.275 43.8513 120.428 53.9327 122.096 76.4794" stroke="#009551" stroke-width="3" stroke-linecap="round"/>
<path d="M115.424 47.7894C117.954 36.3284 117.194 30.5888 113.422 21.1016" stroke="#009551" stroke-width="3" stroke-linecap="round"/>
<path d="M113.422 21.1016C129.983 41.444 134.635 53.1239 135.44 74.4772" stroke="#009551" stroke-width="3" stroke-linecap="round"/>
<path d="M114.423 80.1487C136.107 66.1376 182.144 80.8161 153.454 94.4935" stroke="#009551" stroke-width="3" stroke-linecap="round"/>
<path d="M114.423 88.1562C160.793 91.1586 211.5 109.84 176.806 136.528" stroke="#009551" stroke-width="3" stroke-linecap="round"/>
<path d="M141.444 146.87C145.447 131.525 190.816 133.86 192.151 146.87" stroke="#009551" stroke-width="3" stroke-linecap="round"/>
<path d="M60.7134 171.866C64.7165 156.521 110.086 158.856 111.42 171.866" stroke="#009551" stroke-width="3" stroke-linecap="round"/>
<path d="M141.444 147.204C145.447 162.55 190.816 160.214 192.151 147.204" stroke="#009551" stroke-width="3" stroke-linecap="round"/>
<path d="M60.7134 172.2C64.7165 187.546 110.086 185.211 111.42 172.2" stroke="#009551" stroke-width="3" stroke-linecap="round"/>
<path d="M158.458 79.4825C161.472 61.911 169.795 54.7961 185.479 42.4531" stroke="#009551" stroke-width="3" stroke-linecap="round"/>
<path d="M185.479 42.4531C174.489 64.3266 170.865 76.5119 167.798 99.1647" stroke="#009551" stroke-width="3" stroke-linecap="round"/>
<path d="M175.137 66.1384C182.132 62.4527 186.032 60.8552 193.485 59.1328" stroke="#009551" stroke-width="3" stroke-linecap="round"/>
<path d="M193.486 59.1328C180.029 79.5116 175.211 89.42 174.804 102.5" stroke="#009551" stroke-width="3" stroke-linecap="round"/>
<path d="M141.444 147.535C134.408 149.117 129.967 149.744 121.428 150.538" stroke="#009551" stroke-width="3" stroke-linecap="round"/>
<path d="M121.428 150.539C122.842 157.837 118.917 161.184 108.084 166.552" stroke="#009551" stroke-width="3" stroke-linecap="round"/>
<path d="M132.771 103.168C143.506 107.879 154.211 109.312 150.118 117.846" stroke="#009551" stroke-width="3" stroke-linecap="round"/>
<path d="M111.42 133.191C115.142 136.42 121.931 134.821 131.436 133.859" stroke="#009551" stroke-width="3" stroke-linecap="round"/>
<path d="M81.397 109.839C92.0448 110.35 97.2374 109.421 105.416 105.836" stroke="#009551" stroke-width="3" stroke-linecap="round"/>
<path d="M81.73 124.852C88.8999 126.841 93.2239 128.444 97.7427 126.186" stroke="#009551" stroke-width="3" stroke-linecap="round"/>
<path d="M106.083 143.867C105.421 149.935 105.25 153.598 99.4106 152.874" stroke="#009551" stroke-width="3" stroke-linecap="round"/>
<path d="M63.3822 139.865C72.4868 138.204 77.2282 137.812 82.0637 142.534M45.7015 159.547C39.1558 155.44 38.6818 152.45 46.7023 145.202" stroke="#009551" stroke-width="3" stroke-linecap="round"/>
<path d="M54.709 110.508C46.634 117.932 41.1419 122.267 52.7075 126.187" stroke="#009551" stroke-width="3" stroke-linecap="round"/>
</svg>
