<svg width="23" height="24" viewBox="0 0 23 24" fill="none" xmlns="http://www.w3.org/2000/svg">
<g clip-path="url(#clip0_460_7885)">
<path fill-rule="evenodd" clip-rule="evenodd" d="M17.7891 0.766181C12.9795 1.15556 8.29976 2.36648 5.62655 3.91323C1.99489 6.01467 0 9.13045 0 12.701C0 13.9781 0.545711 16.0883 0.966 16.4371C1.36527 16.7684 1.65636 16.5255 2.60547 15.068C5.22064 11.0529 8.89848 7.49781 12.3824 5.61774C13.6739 4.92074 14.0156 4.89378 14.0156 5.48909C14.0156 5.71729 13.5934 6.05331 12.6687 6.56074C10.9613 7.49799 8.12098 9.77697 6.56183 11.4608C3.44623 14.826 0.713 19.3514 0.136742 22.0987C-0.0925391 23.1917 0.0213828 23.6431 0.526484 23.6431C0.881727 23.6431 0.95989 23.4674 1.3658 21.7564C1.43606 21.4599 1.76381 20.6216 2.0939 19.8936L2.69405 18.5696L3.18891 18.8961C5.9933 20.7469 10.083 21.0387 12.7643 19.5793C13.257 19.311 14.0562 18.6729 14.5401 18.1612C16.0175 16.5992 16.5936 15.2312 18.0591 9.80716C18.8383 6.92335 20.144 4.52632 22.1034 2.38229C23.4886 0.866626 23.3831 0.736532 20.7517 0.716767C19.5671 0.707962 18.2338 0.730243 17.7891 0.766181Z" fill="#201C26"/>
</g>
<defs>
<clipPath id="clip0_460_7885">
<rect width="23" height="23" fill="white" transform="translate(0 0.644531)"/>
</clipPath>
</defs>
</svg>
