<svg width="207" height="202" viewBox="0 0 207 202" fill="none" xmlns="http://www.w3.org/2000/svg">
<path d="M78.334 55.25C80.0303 57.9156 84.1499 59.612 83.6653 67.8512" stroke="#009551" stroke-width="3" stroke-linecap="round"/>
<path d="M148.61 54.2812C150.294 57.0494 154.384 58.811 153.903 67.3671" stroke="#009551" stroke-width="3" stroke-linecap="round"/>
<path d="M37.623 16.2339C41.7427 7.75232 65.7335 4.60201 63.3102 28.1082" stroke="#009551" stroke-width="3" stroke-linecap="round"/>
<path d="M107.898 15.0113C111.049 5.57234 135.524 4.60301 133.586 26.8855" stroke="#009551" stroke-width="3" stroke-linecap="round"/>
<path d="M63.3096 28.1098C79.3034 24.2325 89.4813 43.619 78.3341 55.2509" stroke="#009551" stroke-width="3" stroke-linecap="round"/>
<path d="M133.586 27.1587C149.822 22.0501 160.727 42.6483 148.61 54.2998" stroke="#009551" stroke-width="3" stroke-linecap="round"/>
<path d="M20.1748 36.3477C21.548 41.9213 27.1539 51.3722 38.592 46.5256" stroke="#009551" stroke-width="3" stroke-linecap="round"/>
<path d="M90.4512 35.3789C91.8244 40.9525 97.2364 49.1918 108.868 45.5568" stroke="#009551" stroke-width="3" stroke-linecap="round"/>
<path d="M90.209 106.867C90.2091 111.714 90.936 137.159 103.537 162.603" stroke="#009551" stroke-width="3" stroke-linecap="round"/>
<path d="M45.8623 83.6016H91.4206" stroke="#009551" stroke-width="3" stroke-linecap="round"/>
<path d="M115.169 83.6016H160.727" stroke="#009551" stroke-width="3" stroke-linecap="round"/>
<path d="M42.954 67.8516L94.8129 67.8516" stroke="#009551" stroke-width="3" stroke-linecap="round"/>
<path d="M112.261 67.8516L164.12 67.8516" stroke="#009551" stroke-width="3" stroke-linecap="round"/>
<path d="M42.9543 67.8516C53.6169 117.287 45.8623 144.671 21.1445 187.563" stroke="#009551" stroke-width="3" stroke-linecap="round"/>
<path d="M112.261 67.8516C122.924 117.287 115.169 144.671 90.4512 187.563" stroke="#009551" stroke-width="3" stroke-linecap="round"/>
<path d="M95.2978 67.8516C93.1168 75.5254 89.0457 92.424 90.2089 98.6276" stroke="#009551" stroke-width="3" stroke-linecap="round"/>
<path d="M188.838 187.562V192.894M188.838 199.679V195.317" stroke="#009551" stroke-width="3" stroke-linecap="round"/>
<path d="M2 199.922H8.05828" stroke="#009551" stroke-width="3" stroke-linecap="round"/>
<path d="M14.8435 199.68H190.776" stroke="#009551" stroke-width="3" stroke-linecap="round"/>
<path d="M18.2363 187.562L188.838 187.563" stroke="#009551" stroke-width="3" stroke-linecap="round"/>
<path d="M18.2363 187.562V199.679" stroke="#009551" stroke-width="3" stroke-linecap="round"/>
<path d="M197.077 199.68H204.832" stroke="#009551" stroke-width="3" stroke-linecap="round"/>
<path d="M164.605 67.8516C152.488 109.775 162.423 149.275 185.688 187.563" stroke="#009551" stroke-width="3" stroke-linecap="round"/>
<path d="M58.4635 61.0664C57.8861 63.3282 56.9622 67.8517 57.8861 67.8517" stroke="#009551" stroke-width="3" stroke-linecap="round"/>
<path d="M128.739 59.6133C128.161 62.3597 127.238 67.8525 128.161 67.8525" stroke="#009551" stroke-width="3" stroke-linecap="round"/>
<path d="M38.5918 46.5273C37.8652 53.555 45.2802 66.8832 58.463 61.0672" stroke="#009551" stroke-width="3" stroke-linecap="round"/>
<path d="M108.917 45.5586C107.899 53.3132 115.557 65.1874 128.739 59.3715" stroke="#009551" stroke-width="3" stroke-linecap="round"/>
<path d="M20.1768 36.3471C-15.2055 25.1997 22.1138 -17.4506 37.6247 16.2336" stroke="#009551" stroke-width="3" stroke-linecap="round"/>
<path d="M90.1944 35.2495C54.8121 24.1021 92.1314 -18.5482 107.642 15.136" stroke="#009551" stroke-width="3" stroke-linecap="round"/>
</svg>
