<svg width="40" height="40" viewBox="0 0 40 40" fill="none" xmlns="http://www.w3.org/2000/svg">
<path fill-rule="evenodd" clip-rule="evenodd" d="M11.7562 2.07664C9.43587 2.60828 7.30243 3.11805 7.01516 3.20953C6.09462 3.50265 5.26852 4.02765 4.44344 4.8439C2.30657 6.95773 1.81985 9.66554 2.9836 12.9644C4.00649 15.864 6.24266 18.1072 9.13899 19.1394C10.0094 19.4495 10.0363 19.6218 9.34126 20.4363C7.96055 22.0545 6.97196 24.0716 6.47258 26.2892C6.30024 27.0547 6.2961 27.1883 6.26883 32.9103L6.24102 38.7502H14.3721H22.5033L22.4813 34.3117L22.4593 29.8733L25.7015 28.8645C27.4847 28.3096 29.1883 27.7344 29.4872 27.5862C30.1579 27.2539 30.9527 26.4797 31.3 25.8205C31.6791 25.1011 31.8249 24.5119 31.8219 23.7111C31.8196 23.0908 31.684 22.4155 30.6708 17.9791C30.0391 15.2133 29.5391 12.9334 29.5599 12.9127C29.5806 12.892 31.0324 12.3221 32.7862 11.6462C34.54 10.9705 36.0804 10.3618 36.2093 10.2937C36.8064 9.97797 37.1859 9.34125 37.1859 8.65508C37.1859 8.15195 36.0371 4.62086 35.7444 4.22406C35.3649 3.70976 34.8252 3.43898 34.1776 3.43812C33.7911 3.43758 20.4648 7.86383 19.9571 8.1614C19.6077 8.36609 19.3028 8.78586 19.1283 9.30242C19.0784 9.44984 19.0263 9.58414 19.0124 9.60086C18.9984 9.61765 18.4965 9.33867 17.897 8.98094L16.8069 8.33062L16.284 6.23625L15.761 4.14195L15.9224 3.73117C16.1914 3.04656 16.2475 2.73039 16.2479 1.89469C16.2483 1.18086 16.2335 1.09476 16.1116 1.10195C16.0364 1.1064 14.0765 1.545 11.7562 2.07664ZM32.9034 14.4728C32.4691 15.128 32.0597 15.7949 31.9936 15.9547C31.8066 16.4062 31.8375 17.2255 32.0591 17.6955C32.2786 18.1609 32.4946 18.3731 32.9671 18.5873C33.6239 18.8851 34.5403 18.7409 35.0673 18.257C35.1697 18.163 35.3363 17.9103 35.4377 17.6955C35.6592 17.2255 35.6901 16.4062 35.5031 15.9547C35.3631 15.6163 33.8304 13.2814 33.7484 13.2814C33.7179 13.2814 33.3376 13.8176 32.9034 14.4728ZM19.3343 14.6547C19.022 14.7656 19.0218 14.7659 19.048 15.1429C19.0864 15.6974 18.9379 16.1394 18.5841 16.5233C18.1949 16.9455 17.8988 17.0866 17.0655 17.2473C16.702 17.3173 16.4046 17.4048 16.4046 17.4416C16.4046 17.5662 17.2781 22.3046 17.3064 22.3336C17.3509 22.3791 24.2848 20.8706 24.4588 20.7775C24.7954 20.5973 24.7826 20.4417 24.2137 17.7976C23.915 16.4094 23.6706 15.252 23.6704 15.2255C23.6703 15.199 23.2571 15.2628 22.7523 15.3673C21.3978 15.6477 20.8644 15.5398 20.1973 14.8505C19.8612 14.5032 19.8001 14.4893 19.3343 14.6547ZM34.1534 25.0978C33.7191 25.753 33.3097 26.4199 33.2436 26.5797C33.0566 27.0312 33.0875 27.8505 33.3091 28.3205C33.5286 28.7859 33.7446 28.9981 34.2171 29.2123C34.8739 29.5101 35.7903 29.3659 36.3173 28.882C36.4197 28.788 36.5863 28.5353 36.6877 28.3205C36.9092 27.8505 36.9401 27.0312 36.7531 26.5797C36.6131 26.2413 35.0804 23.9064 34.9984 23.9064C34.9679 23.9064 34.5876 24.4426 34.1534 25.0978ZM28.5284 33.2228C28.0941 33.878 27.6847 34.5449 27.6186 34.7047C27.4316 35.1562 27.4625 35.9755 27.6841 36.4455C27.9036 36.9109 28.1196 37.1231 28.5921 37.3373C29.2489 37.6351 30.1653 37.4909 30.6923 37.007C30.7947 36.913 30.9613 36.6603 31.0627 36.4455C31.2842 35.9755 31.3151 35.1562 31.1281 34.7047C30.9881 34.3663 29.4554 32.0314 29.3734 32.0314C29.3429 32.0314 28.9626 32.5676 28.5284 33.2228Z" fill="#009551"/>
</svg>
