<svg width="40" height="40" viewBox="0 0 40 40" fill="none" xmlns="http://www.w3.org/2000/svg">
<path fill-rule="evenodd" clip-rule="evenodd" d="M10.6875 2.56164C10.4812 2.76789 10.3125 3.59414 10.3125 4.39758C10.3125 5.7707 10.2563 5.86977 9.375 6.04602C8.58125 6.20477 8.4375 6.37852 8.4375 7.17883V8.12414H5.15625H1.875V10.7804V13.4366H3.28125H4.6875V14.6757C4.6875 15.5948 4.84875 16.001 5.3125 16.2491C5.88344 16.5548 5.9375 16.9035 5.9375 20.2723C5.9375 28.9923 6.34188 37.2338 6.79156 37.6835C7.43594 38.3279 15.0763 38.3157 15.7225 37.6695C16.0922 37.2998 16.22 35.266 16.4078 26.7585C16.6253 16.8954 16.6716 16.2935 17.2253 16.1488C17.6794 16.0301 17.8125 15.7048 17.8125 14.716V13.4366H20H22.1875V14.716C22.1875 15.7048 22.3206 16.0301 22.7747 16.1488C23.3284 16.2935 23.3747 16.8954 23.5922 26.7585C23.78 35.266 23.9078 37.2998 24.2775 37.6695C24.9238 38.3157 32.5641 38.3279 33.2084 37.6838C33.6522 37.2398 34.0597 28.8376 34.0619 20.0882C34.0625 16.9038 34.1197 16.5532 34.6875 16.2491C35.1512 16.001 35.3125 15.5948 35.3125 14.6757V13.4366H36.7188H38.125V10.7804V8.12414H34.8438H31.5625V7.17883C31.5625 6.37852 31.4188 6.20477 30.625 6.04602C29.7437 5.86977 29.6875 5.7707 29.6875 4.39758C29.6875 3.59414 29.5188 2.76789 29.3125 2.56164C28.7772 2.02633 11.2228 2.02633 10.6875 2.56164ZM12.1875 4.96008C12.1875 5.7082 12.3441 5.88977 13.125 6.04602C13.9187 6.20477 14.0625 6.37852 14.0625 7.17883V8.12414H20H25.9375V7.17883C25.9375 6.37852 26.0812 6.20477 26.875 6.04602C27.6559 5.88977 27.8125 5.7082 27.8125 4.96008V4.06164H20H12.1875V4.96008Z" fill="#009551"/>
</svg>
