<svg width="40" height="40" viewBox="0 0 40 40" fill="none" xmlns="http://www.w3.org/2000/svg">
<g clip-path="url(#clip0_460_5780)">
<path fill-rule="evenodd" clip-rule="evenodd" d="M6.44844 1.58419C5.99563 1.94013 5.625 2.39857 5.625 2.60263C5.625 2.80669 5.34375 3.14919 5 3.36388C4.65625 3.57857 4.375 3.96388 4.375 4.22013C4.375 4.60763 5.00938 4.68638 8.125 4.68638C11.5616 4.68638 11.875 4.63825 11.875 4.10982C11.875 3.4895 10.9556 2.49888 10.3803 2.49888C10.1869 2.49888 9.67688 2.14732 9.24719 1.71763C8.29625 0.766691 7.53375 0.730441 6.44844 1.58419ZM30.9375 2.96763C30.9375 3.22544 31.1484 3.43638 31.4062 3.43638C31.6641 3.43638 31.875 3.22544 31.875 2.96763C31.875 2.70982 31.6641 2.49888 31.4062 2.49888C31.1484 2.49888 30.9375 2.70982 30.9375 2.96763ZM16.0156 3.01825C15.4309 3.25419 15.5019 5.62388 16.0938 5.62388C16.3516 5.62388 16.5653 5.72919 16.5691 5.85825C16.5931 6.71669 13.2463 23.7489 13.0534 23.7489C12.9209 23.7489 12.8125 23.1161 12.8125 22.3426C12.8125 20.9886 12.7778 20.9364 11.875 20.9364H10.9375V18.9051V16.8739H12.1875C13.3125 16.8739 13.4375 16.7958 13.4375 16.0926C13.4375 15.3395 13.3647 15.3114 11.4062 15.3114C10.2891 15.3114 9.375 15.1808 9.375 15.0211C9.375 14.4945 8.40469 13.7489 7.71219 13.7436C7.17375 13.7395 6.64937 13.0523 5.2075 10.4623C4.20437 8.66044 3.21125 7.18638 3.00031 7.18638C2.51625 7.18638 0.9375 8.81388 0.9375 9.31294C0.9375 9.85294 2.0875 9.77263 2.30062 9.21763C2.39937 8.95982 2.61469 8.74888 2.77875 8.74888C3.10531 8.74888 7.1875 15.9426 7.1875 16.5179C7.1875 16.7248 7.71094 16.8739 8.4375 16.8739H9.6875V18.9051V20.9364H8.75C7.95844 20.9364 7.8125 21.0579 7.8125 21.7176C7.8125 22.2904 7.64594 22.4989 7.1875 22.4989C6.7825 22.4989 6.5625 22.7073 6.5625 23.0904C6.5625 23.4158 6.35156 23.7629 6.09375 23.862C5.83594 23.9608 5.625 24.3273 5.625 24.6767C5.625 25.0258 5.48719 25.3114 5.31844 25.3114C4.89437 25.3114 4.5875 26.6911 4.83656 27.4764C5 27.9908 5.30187 28.1239 6.30687 28.1239C7.39781 28.1239 7.73625 28.3064 8.77281 29.452C9.76313 30.5467 9.97656 31.0148 9.98719 32.1148C10.0037 33.8564 9.10437 34.3814 7.18781 33.7489C6.15188 33.407 5.72312 33.407 4.68719 33.7489C3.71875 34.0686 3.25781 34.0798 2.64125 33.7989C1.03437 33.0667 0.9375 33.2061 0.9375 36.2489V39.0614H20H39.0625V36.2489C39.0625 33.2061 38.9656 33.0667 37.3587 33.7989C36.7422 34.0798 36.2812 34.0686 35.3128 33.7489C34.2769 33.407 33.8481 33.407 32.8122 33.7489C30.9172 34.3745 30 33.8539 30 32.1529C30 31.0964 30.215 30.617 31.1594 29.5679C32.1141 28.5073 32.5687 28.2526 33.7347 28.1239C34.7844 28.0079 35.1791 27.8198 35.2594 27.3961C35.4347 26.4729 35.0256 25.3114 34.5253 25.3114C34.2706 25.3114 34.0625 25.0301 34.0625 24.6864C34.0625 24.2279 33.8541 24.0614 33.2812 24.0614C32.6562 24.0614 32.5 23.9051 32.5 23.2801C32.5 22.6551 32.3438 22.4989 31.7188 22.4989C30.9722 22.4989 30.9375 22.4154 30.9375 20.6239V18.7489H32.0312C32.6541 18.7489 33.125 18.5923 33.125 18.3854C33.125 17.9301 36.8278 11.3148 37.2175 11.0742C37.3753 10.9767 37.5887 11.1167 37.6919 11.3854C37.9197 11.9786 39.0625 12.0404 39.0625 11.4595C39.0625 10.912 37.7409 9.68638 37.1503 9.68638C36.8894 9.68638 35.9525 10.9767 35.0172 12.6248C33.6197 15.087 33.2 15.5933 32.4272 15.7479C31.8719 15.8589 31.4412 16.1761 31.3447 16.5451C31.2109 17.0564 30.8656 17.1736 29.2641 17.2504C27.5828 17.3311 27.3438 17.4204 27.3438 17.9676C27.3438 18.4442 27.5847 18.6158 28.3594 18.6904L29.375 18.7886V20.6436C29.375 22.4142 29.3394 22.4989 28.5938 22.4989C27.875 22.4989 27.8097 22.6179 27.7763 23.9833C27.7563 24.7995 27.6741 25.1864 27.5938 24.8426C27.5131 24.4989 27.2741 24.077 27.0625 23.9051C26.7656 23.6639 23.3953 6.92044 23.43 5.85825C23.4341 5.72919 23.6484 5.62388 23.9062 5.62388C24.58 5.62388 24.5572 3.26075 23.8806 3.00107C23.2941 2.77607 16.5797 2.79075 16.0156 3.01825ZM28.6281 3.88232C28.85 4.46013 29.8009 4.55794 29.6094 3.98325C29.5381 3.76857 29.2456 3.54732 28.9597 3.49169C28.5972 3.42138 28.4969 3.53982 28.6281 3.88232ZM33.2684 3.76982C33.155 3.95294 33.1406 4.18138 33.2366 4.277C33.4934 4.53419 34.375 4.13294 34.375 3.75857C34.375 3.3345 33.5322 3.34294 33.2684 3.76982ZM29.8859 4.39669C29.2825 4.87107 29.0625 5.33044 29.0625 6.11544C29.0625 7.24325 29.9441 8.43638 30.7775 8.43638C31.0675 8.43638 31.2147 8.68794 31.1681 9.10513C31.1272 9.47294 31.2894 9.84263 31.5287 9.927C31.8512 10.0408 31.9228 9.86825 31.8062 9.25857C31.6834 8.61638 31.7725 8.43638 32.2131 8.43638C32.9888 8.43638 33.75 7.252 33.75 6.04575C33.75 4.90607 32.5694 3.74888 31.4062 3.74888C31.0228 3.74888 30.3388 4.04044 29.8859 4.39669ZM27.5 6.24888C27.5 6.42075 27.7812 6.56138 28.125 6.56138C28.4688 6.56138 28.75 6.42075 28.75 6.24888C28.75 6.077 28.4688 5.93638 28.125 5.93638C27.7812 5.93638 27.5 6.077 27.5 6.24888ZM34.0625 6.24888C34.0625 6.42075 34.3438 6.56138 34.6875 6.56138C35.0312 6.56138 35.3125 6.42075 35.3125 6.24888C35.3125 6.077 35.0312 5.93638 34.6875 5.93638C34.3438 5.93638 34.0625 6.077 34.0625 6.24888ZM17.9847 6.95732C17.9206 7.16919 17.7941 7.67513 17.7041 8.08138L17.5397 8.82044L18.3013 8.10513C18.72 7.71169 19.0625 7.28888 19.0625 7.16544C19.0625 6.752 18.1028 6.56669 17.9847 6.95732ZM21.235 6.88482C20.8597 7.11825 20.9206 7.307 21.5894 7.97794L22.3975 8.78857L22.2566 7.82732C22.0922 6.70763 21.8619 6.49513 21.235 6.88482ZM28.6072 8.41482C28.5081 8.57482 28.5703 8.79388 28.745 8.902C29.1178 9.13232 29.6875 8.83982 29.6875 8.41794C29.6875 8.03763 28.8416 8.03513 28.6072 8.41482ZM33.1931 8.4845C33.27 8.71607 33.5837 8.95357 33.89 9.01325C34.2463 9.082 34.3966 8.9695 34.3069 8.70075C34.23 8.46919 33.9163 8.23169 33.61 8.172C33.2537 8.10325 33.1034 8.21575 33.1931 8.4845ZM18.3125 9.477L17.4062 10.2023L18.3906 10.9029L19.375 11.6039V10.1764C19.375 9.39138 19.34 8.7495 19.2969 8.75044C19.2537 8.75138 18.8109 9.07825 18.3125 9.477ZM20.625 10.1654V11.6039L21.5753 10.927C22.5847 10.2086 22.4878 9.72388 21.1975 9.03325C20.6809 8.757 20.625 8.86763 20.625 10.1654ZM17.0797 11.8008C16.6984 13.2092 16.5666 14.0614 16.7294 14.0614C16.8278 14.0614 17.39 13.7342 17.9788 13.3339L19.0491 12.6067L18.1378 11.9326C17.3038 11.3161 17.2141 11.3051 17.0797 11.8008ZM21.6322 12.0911L20.9209 12.5861L22.0472 13.3517C22.6669 13.7726 23.2222 14.0683 23.2816 14.0089C23.4972 13.7933 22.9447 11.762 22.6481 11.6804C22.4806 11.6342 22.0238 11.8189 21.6322 12.0911ZM17.915 14.6164L16.6112 15.4817L17.8641 16.2026C18.5531 16.5992 19.1831 16.8573 19.2644 16.7761C19.3456 16.6951 19.3684 15.9811 19.3153 15.1898L19.2188 13.7511L17.915 14.6164ZM20.625 15.3114C20.625 16.1708 20.7113 16.8739 20.8169 16.8739C20.9222 16.8739 21.5497 16.5698 22.2109 16.1983L23.4131 15.5226L22.2534 14.6445C21.6156 14.1614 20.9881 13.7623 20.8594 13.7576C20.7306 13.7529 20.625 14.452 20.625 15.3114ZM7.8125 14.9989C7.8125 15.1708 7.96156 15.3114 8.14344 15.3114C8.32531 15.3114 8.3875 15.1708 8.28125 14.9989C8.175 14.827 8.02625 14.6864 7.95031 14.6864C7.87437 14.6864 7.8125 14.827 7.8125 14.9989ZM16.1119 16.9426C16.0428 17.1626 15.8975 17.8761 15.7887 18.5283L15.5916 19.7139L17.1706 18.9136C18.0394 18.4736 18.75 18.0483 18.75 17.9686C18.75 17.8892 18.1847 17.5358 17.4937 17.1833C16.5472 16.7001 16.2066 16.6411 16.1119 16.9426ZM22.3756 17.2426C21.0447 17.9323 21.0491 17.942 23.2344 19.0958L24.4375 19.7311L24.2178 18.3804C24.0969 17.6379 23.9072 16.9361 23.7959 16.8211C23.6847 16.7061 23.0456 16.8958 22.3756 17.2426ZM17.3503 19.8995L15.7944 20.7086L17.4684 21.4476C18.3894 21.8539 19.195 22.1864 19.2587 22.1864C19.3228 22.1864 19.375 21.4833 19.375 20.6239C19.375 19.7645 19.2697 19.0679 19.1406 19.0761C19.0116 19.0839 18.2059 19.4545 17.3503 19.8995ZM20.625 20.6239C20.625 21.4833 20.6772 22.1864 20.7413 22.1864C20.805 22.1864 21.6112 21.8536 22.5325 21.447L24.2075 20.7079L22.5828 19.8845C21.6894 19.4317 20.8834 19.0614 20.7916 19.0614C20.7 19.0614 20.625 19.7645 20.625 20.6239ZM15.1803 21.7979C15.0809 21.897 15 22.3764 15 22.8636C15 23.6976 15.0769 23.7486 16.3281 23.7442C17.5644 23.7395 18.765 23.3286 18.4284 23.0251C18.0184 22.6554 15.3359 21.642 15.1803 21.7979ZM23.2812 22.2214C22.5938 22.5364 21.8906 22.8576 21.7188 22.9351C21.0794 23.2239 22.3894 23.7395 23.7741 23.7442C25.1875 23.7489 25.2025 23.7379 25.0662 22.8076C24.99 22.2898 24.8388 21.8173 24.7297 21.7573C24.6206 21.6976 23.9688 21.9064 23.2812 22.2214ZM9.375 28.4179C9.375 28.5798 9.51562 28.7989 9.6875 28.9051C9.85938 29.0114 10 28.8789 10 28.6111C10 28.3433 9.85938 28.1239 9.6875 28.1239C9.51562 28.1239 9.375 28.2561 9.375 28.4179ZM12.8125 28.4548C12.8125 28.6367 12.9531 28.6989 13.125 28.5926C13.2969 28.4864 13.4375 28.3376 13.4375 28.2617C13.4375 28.1858 13.2969 28.1239 13.125 28.1239C12.9531 28.1239 12.8125 28.2729 12.8125 28.4548ZM13.9697 29.3089C12.9031 30.4011 12.8125 30.6367 12.8125 32.3142C12.8125 34.0645 12.8394 34.1251 13.5156 33.8945C14.3663 33.6045 16.0434 33.6117 17.4219 33.9114L18.4375 34.1323L18.4291 32.2998C18.4216 30.6451 18.315 30.3542 17.3309 29.2958C16.7319 28.6514 15.9906 28.1239 15.6841 28.1239C15.3778 28.1239 14.6062 28.657 13.9697 29.3089ZM17.9688 28.4364C18.075 28.6083 18.2237 28.7489 18.2997 28.7489C18.3756 28.7489 18.4375 28.6083 18.4375 28.4364C18.4375 28.2645 18.2884 28.1239 18.1066 28.1239C17.9247 28.1239 17.8625 28.2645 17.9688 28.4364ZM21.5625 28.4548C21.5625 28.6367 21.7031 28.6989 21.875 28.5926C22.0469 28.4864 22.1875 28.3376 22.1875 28.2617C22.1875 28.1858 22.0469 28.1239 21.875 28.1239C21.7031 28.1239 21.5625 28.2729 21.5625 28.4548ZM22.7197 29.3089C21.6534 30.4011 21.5625 30.6367 21.5625 32.3133V34.1323L22.5781 33.9114C23.9566 33.6117 25.6338 33.6045 26.4844 33.8945C27.1612 34.1254 27.1875 34.0654 27.1875 32.2864C27.1875 30.5589 27.11 30.3626 26.0025 29.2811C25.3506 28.6445 24.6056 28.1239 24.3472 28.1239C24.0884 28.1239 23.3563 28.657 22.7197 29.3089ZM26.7188 28.4364C26.825 28.6083 26.9737 28.7489 27.0497 28.7489C27.1256 28.7489 27.1875 28.6083 27.1875 28.4364C27.1875 28.2645 27.0384 28.1239 26.8566 28.1239C26.6747 28.1239 26.6125 28.2645 26.7188 28.4364ZM30 28.6111C30 28.8789 30.1406 29.0114 30.3125 28.9051C30.4844 28.7989 30.625 28.5798 30.625 28.4179C30.625 28.2561 30.4844 28.1239 30.3125 28.1239C30.1406 28.1239 30 28.3433 30 28.6111Z" fill="#009551"/>
</g>
<defs>
<clipPath id="clip0_460_5780">
<rect width="40" height="40" fill="white"/>
</clipPath>
</defs>
</svg>
