<svg width="45" height="45" viewBox="0 0 45 45" fill="none" xmlns="http://www.w3.org/2000/svg">
<g clip-path="url(#clip0_460_5383)">
<path fill-rule="evenodd" clip-rule="evenodd" d="M30.1192 2.07541C28.5878 3.70547 24.3617 9.41275 24.3493 9.86719C24.3311 10.5468 23.603 9.86822 21.1215 6.85938C19.6406 5.06328 18.1687 3.59375 17.8511 3.59375C17.1185 3.59375 12.1782 9.38491 9.64026 13.2188C7.5262 16.4122 5.16154 21.0098 4.25164 23.6966C1.12351 32.9321 5.80882 42.0487 14.703 44.0318C19.6633 45.1377 24.4937 43.7272 28.0677 40.1289C30.2106 37.9718 31.0363 36.5137 31.919 33.3281C32.4525 31.4038 32.5687 31.2522 33.6588 31.0632C37.617 30.3763 41.2439 27.1461 42.2494 23.4127C43.0885 20.2969 42.456 16.0705 40.598 12.3742C38.6308 8.46056 32.8011 0.5 31.9022 0.5C31.7355 0.5 30.9332 1.20881 30.1192 2.07541ZM29.9428 4.37166C27.035 7.97278 24.7873 11.5361 23.6024 14.4219C22.6364 16.7752 22.4721 17.5933 22.4628 20.0938C22.4501 23.4628 23.0142 24.953 25.0863 27.0251C26.9295 28.8683 28.3035 29.464 31.135 29.6476C34.1985 29.8463 36.2042 29.1746 38.2911 27.251C42.1394 23.7038 42.235 18.2014 38.5641 11.5227C37.3465 9.30688 33.0957 3.40812 32.1531 2.62575C31.7671 2.30537 31.3364 2.64603 29.9428 4.37166ZM15.5638 7.70534C7.60114 17.2647 3.93126 25.3806 4.77173 31.574C5.98001 40.4767 15.8556 45.7289 23.7832 41.6847C27.0746 40.0055 30.1948 35.8887 30.7345 32.5131C30.9352 31.2574 30.8844 31.0938 30.2914 31.0938C28.8088 31.0938 26.3142 29.914 24.669 28.4352C20.4385 24.6313 19.8094 19.5503 22.7378 12.8396L23.2782 11.6011L20.8025 8.56747C19.4409 6.89925 18.1577 5.47922 17.9508 5.41253C17.7442 5.34584 16.6699 6.37744 15.5638 7.70534ZM38.6366 20.1797C38.5696 20.4162 38.3382 21.2598 38.1227 22.0548C37.9068 22.8499 37.3156 23.9932 36.8085 24.5958C35.8251 25.7646 33.5955 26.9488 32.3549 26.9612C31.4399 26.9705 30.9992 27.5755 31.5244 28.1007C31.808 28.3843 32.337 28.3716 33.5398 28.0529C36.9017 27.1612 39.2378 24.6151 39.6847 21.355C39.8707 19.9978 39.816 19.75 39.3317 19.75C39.0164 19.75 38.7036 19.9435 38.6366 20.1797ZM27.3025 33.9778C26.2929 36.394 22.9585 39.2496 20.4753 39.8253C19.5568 40.0381 19.2044 40.8208 19.8483 41.2186C20.0236 41.3268 21.0363 41.0903 22.0988 40.6926C25.2114 39.528 29.3028 34.9331 28.6778 33.3041C28.3623 32.4822 27.8154 32.7499 27.3025 33.9778ZM15.1248 40.6328C15.2592 41.3413 17.012 41.6555 17.5922 41.0752C18.1024 40.5651 17.2939 40.0436 15.9814 40.0364C15.2413 40.0326 15.0378 40.1743 15.1248 40.6328Z" fill="white"/>
</g>
<defs>
<clipPath id="clip0_460_5383">
<rect width="44" height="44" fill="white" transform="translate(0.966797 0.5)"/>
</clipPath>
</defs>
</svg>
