<svg width="40" height="40" viewBox="0 0 40 40" fill="none" xmlns="http://www.w3.org/2000/svg">
<g clip-path="url(#clip0_460_5752)">
<path fill-rule="evenodd" clip-rule="evenodd" d="M15.4057 2.94281C15.4057 4.57812 15.5453 5.9875 15.7182 6.09438C15.89 6.20062 16.0307 6.67531 16.0307 7.14906C16.0307 7.81875 15.77 8.15719 14.8588 8.67062C13.3919 9.49656 12.1085 10.8287 11.6757 11.9741C11.2547 13.0881 11.2391 18.0244 11.6557 18.2819C12.0622 18.5331 12.0622 20.8431 11.6557 21.0944C11.1916 21.3813 11.2566 27.9953 11.731 28.755C12.0394 29.2491 12.0394 29.5022 11.731 29.9963C11.1419 30.9394 11.2175 36.6728 11.836 37.9762C12.6866 39.7688 13.6485 40.0006 20.2341 40.0006C24.8319 40.0006 26.255 39.9006 26.9785 39.5266C28.7031 38.6347 28.7985 38.0919 28.8035 29.1216C28.806 24.1981 28.6903 20.9381 28.5128 20.9381C28.1182 20.9381 28.1338 18.8397 28.5307 18.5944C28.7044 18.4872 28.8432 17.0531 28.8432 15.3678C28.8432 11.6444 28.3828 10.6069 26.055 9.08156C24.4666 8.04094 24.4207 7.97031 24.6303 6.89406C24.7494 6.2825 24.8672 4.51625 24.8919 2.96938L24.9369 0.156875L20.1713 0.070625L15.4057 -0.015625V2.94281ZM17.2807 7.03188C17.2807 7.79563 17.3328 7.81313 19.6244 7.81313C21.916 7.81313 21.9682 7.79563 21.9682 7.03188C21.9682 6.26813 21.916 6.25063 19.6244 6.25063C17.3328 6.25063 17.2807 6.26813 17.2807 7.03188ZM16.4994 15.3131C16.3932 15.485 15.471 15.6256 14.4497 15.6256C12.7032 15.6256 12.5932 15.6697 12.5932 16.3687C12.5932 16.7772 12.8041 17.2866 13.0619 17.5006C13.3791 17.7641 13.5307 18.4706 13.5307 19.6881C13.5307 20.9056 13.3791 21.6122 13.0619 21.8756C12.8041 22.0897 12.5932 22.7397 12.5932 23.32V24.3756H19.6244H26.6557V23.1638C26.6557 22.4681 26.456 21.7866 26.1869 21.5631C25.8988 21.3241 25.7182 20.6384 25.7182 19.7837C25.7182 18.9647 25.9107 18.2009 26.1869 17.9247C26.4447 17.6669 26.6557 17.0441 26.6557 16.5409V15.6256H22.4553C19.9922 15.6256 18.175 15.4962 18.0619 15.3131C17.9557 15.1412 17.6041 15.0006 17.2807 15.0006C16.9572 15.0006 16.6057 15.1412 16.4994 15.3131ZM18.5238 17.8616C16.92 20.3428 16.8413 21.7628 18.2422 22.9416C20.905 25.1825 23.9997 22.5953 22.5447 19.345C21.8388 17.7684 20.5094 15.9381 20.0703 15.9381C19.9035 15.9381 19.2075 16.8037 18.5238 17.8616Z" fill="#009551"/>
</g>
<defs>
<clipPath id="clip0_460_5752">
<rect width="40" height="40" fill="white"/>
</clipPath>
</defs>
</svg>
