<svg width="40" height="40" viewBox="0 0 40 40" fill="none" xmlns="http://www.w3.org/2000/svg">
<g clip-path="url(#clip0_460_5764)">
<path fill-rule="evenodd" clip-rule="evenodd" d="M24.6084 2.0531C22.8615 2.96247 22.7778 3.40091 23.9206 5.65622C24.559 6.91653 24.8534 7.20872 25.405 7.13028C25.8921 7.06091 26.1215 6.78185 26.1915 6.1731C26.2459 5.7006 26.3668 5.31372 26.4603 5.31372C26.9865 5.31372 30.5387 7.46622 31.7009 8.48935C35.5518 11.8787 37.6181 17.6056 36.8134 22.6575C36.6215 23.8606 36.4512 25.3372 36.435 25.9387C36.409 26.8931 36.5009 27.0325 37.155 27.0325C38.1906 27.0325 38.7493 25.3406 38.9615 21.5637C39.1662 17.9131 38.6006 15.2297 36.9593 12.0678C35.3887 9.04185 32.114 5.77372 29.2006 4.32528C27.4153 3.43778 27.0531 3.13841 27.2971 2.75153C27.7059 2.10341 27.3328 1.24778 26.6493 1.26591C26.3434 1.27372 25.4246 1.6281 24.6084 2.0531ZM14.999 3.2056C12.0318 4.23091 10.105 5.46247 7.76965 7.82528C4.1359 11.5025 2.25965 16.5534 2.60434 21.7306L2.77152 24.2415L1.93215 24.2306C1.24215 24.2218 1.09277 24.359 1.09277 25.0012C1.09277 25.6247 1.42746 25.9618 2.74809 26.6697C3.65871 27.1575 4.60215 27.4806 4.84496 27.3875C5.34559 27.1953 6.87402 24.339 6.87402 23.5956C6.87402 22.9253 5.97871 22.6372 5.27027 23.0797C4.71684 23.425 4.68652 23.3006 4.68652 20.6856C4.68652 13.04 9.39684 6.87372 16.8125 4.81216C18.6262 4.30778 18.7725 4.20247 18.6862 3.46122C18.5603 2.37903 17.5862 2.31153 14.999 3.2056ZM12.5975 10.0062C11.2193 10.5556 10.8315 12.3962 11.874 13.4387C12.6775 14.2422 14.1956 14.2422 14.999 13.4387C16.5828 11.855 14.7025 9.16716 12.5975 10.0062ZM18.8868 12.78C15.2671 17.7753 15 18.2047 14.5331 19.7765C13.67 22.6831 14.0296 25.0015 15.6478 26.9634C16.9975 28.5993 18.6496 29.3762 20.7803 29.3762C24.9959 29.3762 27.8806 25.9656 27.3671 21.5884C27.0896 19.2212 26.3303 17.6812 23.784 14.3215C22.5693 12.7187 21.3884 11.14 21.1593 10.8128C20.7737 10.2618 20.6065 10.4065 18.8868 12.78ZM12.9812 11.8547C12.75 12.2287 13.3378 12.599 13.754 12.3418C14.1037 12.1259 13.874 11.5637 13.4365 11.5637C13.285 11.5637 13.08 11.6947 12.9812 11.8547ZM30.3678 21.3293C30.4334 21.7909 30.6825 22.0325 31.0928 22.0325C31.5031 22.0325 31.7521 21.7909 31.8178 21.3293C31.8996 20.7525 31.7693 20.6262 31.0928 20.6262C30.4162 20.6262 30.2859 20.7525 30.3678 21.3293ZM10.1128 27.3428C10.0046 27.625 10.0659 28.0056 10.249 28.1887C10.7253 28.665 11.6271 28.2297 11.5028 27.584C11.3643 26.8647 10.3631 26.6909 10.1128 27.3428ZM6.76996 30.8347C6.22434 31.3803 6.7234 32.2687 8.5209 33.9497C13.495 38.6025 20.9584 40.0225 27.3434 37.5309C28.7181 36.9947 30.4734 36.0906 31.2443 35.5222L32.6462 34.4887L33.1781 35.1356C33.605 35.655 33.8215 35.7143 34.2762 35.4375C34.9637 35.019 35.2518 31.7762 34.6646 31.0687C34.1359 30.4315 30.4446 30.4534 30.1984 31.095C29.9237 31.8115 30.2896 32.4531 31.0412 32.5709C31.5921 32.6575 31.3453 32.9228 29.709 34C23.3903 38.1615 15.4759 37.5097 9.78496 32.3597C7.97434 30.7212 7.24965 30.3547 6.76996 30.8347Z" fill="#009551"/>
</g>
<defs>
<clipPath id="clip0_460_5764">
<rect width="40" height="40" fill="white" transform="translate(-0.000976562)"/>
</clipPath>
</defs>
</svg>
