<svg width="40" height="40" viewBox="0 0 40 40" fill="none" xmlns="http://www.w3.org/2000/svg">
<g clip-path="url(#clip0_460_5756)">
<path fill-rule="evenodd" clip-rule="evenodd" d="M13.7278 0.408622C10.6969 1.268 7.67373 3.76862 6.82342 6.11956C6.52717 6.93956 6.24842 7.15893 5.31467 7.30831C3.8628 7.5405 1.8553 8.98456 0.951235 10.448C0.0865476 11.8467 -0.230015 14.7636 0.306235 16.3886C0.80561 17.9021 2.26874 19.5496 3.87655 20.4102C5.13311 21.0827 5.41842 21.0964 19.7569 21.1874C29.4525 21.2489 34.7756 21.1674 35.6022 20.9449C38.369 20.1999 40.034 17.7592 40.19 14.2199C40.26 12.6367 40.214 12.2914 40.024 12.9699C39.8797 13.4855 39.7447 13.6617 39.7244 13.3614C39.6565 12.3583 37.5012 10.3396 35.8859 9.76675C34.8162 9.38706 34.1694 8.92268 33.7712 8.24768C32.5603 6.19612 29.6253 4.68862 26.8422 4.68862C25.4459 4.68862 25.2228 4.57737 24.035 3.28862C21.5672 0.611435 17.2587 -0.592628 13.7278 0.408622ZM0.0968601 14.2199C0.0984226 15.2511 0.15686 15.6352 0.226548 15.0736C0.295923 14.5121 0.294673 13.6683 0.223423 13.1986C0.15186 12.7289 0.0949851 13.1886 0.0968601 14.2199ZM4.73092 29.0292C3.59561 31.1592 3.48374 32.5474 4.37499 33.4386C5.7578 34.8214 8.24998 33.7861 8.24998 31.8292C8.24998 30.7889 6.47186 27.1886 5.95811 27.1886C5.8228 27.1886 5.27061 28.0167 4.73092 29.0292ZM18.8222 29.0252C17.6603 31.1386 17.5381 32.5392 18.4375 33.4386C19.9056 34.9067 22.7772 33.4961 22.3784 31.5024C22.1703 30.4627 20.4025 27.1886 20.049 27.1886C19.9297 27.1886 19.3775 28.0152 18.8222 29.0252ZM32.8856 29.0233C32.3297 30.0346 31.875 31.3008 31.875 31.8377C31.875 33.9108 34.2844 34.8077 35.7953 33.2964C36.2172 32.8746 36.5625 32.2542 36.5625 31.9177C36.5625 31.1808 34.6625 27.4374 34.2137 27.2896C34.039 27.2324 33.4412 28.0124 32.8856 29.0233ZM12.5753 33.5167C11.9253 34.3261 10.625 37.1933 10.625 37.8174C10.625 38.7002 11.9878 40.0011 12.9125 40.0011C14.099 40.0011 15.3125 38.8642 15.3125 37.7524C15.3125 36.8511 13.5237 33.1261 13.0912 33.1261C12.98 33.1261 12.7478 33.3021 12.5753 33.5167ZM26.4875 33.8292C25.5603 35.2477 24.6875 37.1808 24.6875 37.8155C24.6875 38.6999 26.0494 40.0011 26.975 40.0011C28.1594 40.0011 29.375 38.8643 29.375 37.7564C29.375 36.8142 27.6265 33.1261 27.18 33.1261C27.0519 33.1261 26.74 33.4427 26.4875 33.8292Z" fill="#009551"/>
</g>
<defs>
<clipPath id="clip0_460_5756">
<rect width="40" height="40" fill="white"/>
</clipPath>
</defs>
</svg>
