<svg width="40" height="40" viewBox="0 0 40 40" fill="none" xmlns="http://www.w3.org/2000/svg">
<g clip-path="url(#clip0_460_5784)">
<path fill-rule="evenodd" clip-rule="evenodd" d="M11.5985 0.547995C11.2363 0.84862 10.8526 1.54612 10.746 2.09799C10.5838 2.93737 10.7073 3.25612 11.5023 4.05112C12.7335 5.28237 13.8257 5.28643 15.0485 4.06362C15.5642 3.548 16.0392 3.12612 16.1038 3.12612C16.1688 3.12612 16.5529 3.45706 16.957 3.86112C17.3613 4.2655 17.8835 4.66018 18.1176 4.738C18.471 4.85581 18.4779 5.21081 18.1579 6.83737C17.946 7.91393 17.8632 9.20675 17.9738 9.70987C18.1363 10.4505 18.006 10.7936 17.2892 11.5105C16.5679 12.2317 16.0267 12.4352 14.3738 12.6074C11.9879 12.8558 9.06291 14.1524 9.06291 14.9617C9.06291 15.6508 8.46478 16.2511 7.77822 16.2511C7.18135 16.2511 5.62541 19.0752 5.62541 20.1589C5.62541 20.5221 5.41885 21.0921 5.16666 21.4258C4.60103 22.1733 4.52541 25.6511 5.06291 26.1886C5.66197 26.7877 11.3901 26.6917 12.0095 26.0727C12.6479 25.4339 12.6517 22.9549 12.0157 21.7352C11.572 20.8842 11.5804 20.7514 12.1251 20.0164C12.9732 18.8717 14.4298 18.4764 17.8726 18.4561C19.5382 18.4464 20.9879 18.298 21.0942 18.1261C21.3454 17.7196 22.5004 17.7196 22.5004 18.1261C22.5004 18.3189 24.1176 18.4386 26.727 18.4386C30.9195 18.4386 30.9557 18.4449 31.2432 19.2008C31.621 20.1946 32.4717 20.6261 34.0523 20.6261C35.4013 20.6261 36.037 19.9752 35.3545 19.2927C34.8751 18.8133 34.8751 12.1264 35.3545 11.6471C36.0523 10.9492 35.3998 10.3136 33.986 10.3136C32.4473 10.3136 31.2504 11.0049 31.2504 11.8939C31.2504 12.423 31.0251 12.5011 29.5004 12.5011C27.9226 12.5011 27.6445 12.3952 26.6742 11.4249C25.7645 10.5152 25.6542 10.2592 25.9595 9.77018C26.237 9.32581 26.2145 8.67487 25.8623 6.96268L25.4035 4.73362L26.1304 4.55112C26.5304 4.45081 27.007 4.08924 27.1898 3.74737C27.6363 2.91299 27.912 2.96081 29.0148 4.06362C30.0601 5.10893 31.0685 5.24987 32.1382 4.50081C33.1388 3.79987 33.4838 2.72612 33.0804 1.56862C32.4732 -0.173255 30.2498 -0.589193 28.8782 0.78237C28.4485 1.21206 28.0182 1.56362 27.922 1.56362C27.8257 1.56362 27.3292 1.21206 26.8185 0.78237C26.0807 0.161432 25.5457 0.00111995 24.2135 0.00111995C23.2917 0.00111995 22.4504 0.141745 22.3442 0.31362C22.0938 0.718932 20.7195 0.718932 20.4692 0.31362C20.0079 -0.43263 17.3601 0.16112 16.7817 1.14049C16.4145 1.76268 15.9429 1.66049 15.1292 0.78237C14.2576 -0.158255 12.5829 -0.269193 11.5985 0.547995ZM7.56572 28.2042C7.38791 28.4192 6.59728 29.9205 5.80885 31.5408C3.88135 35.5027 3.83478 37.0339 5.58853 38.788C6.66635 39.8655 6.97197 40.0011 8.32291 39.9999C10.2313 39.9986 11.5888 39.2052 12.3201 37.6639C13.0617 36.1011 12.8176 34.9464 10.9151 31.0167C9.59853 28.2974 9.25291 27.8136 8.62697 27.8136C8.22135 27.8136 7.74385 27.9896 7.56572 28.2042Z" fill="#009551"/>
</g>
<defs>
<clipPath id="clip0_460_5784">
<rect width="40" height="40" fill="white"/>
</clipPath>
</defs>
</svg>
