<svg width="40" height="40" viewBox="0 0 40 40" fill="none" xmlns="http://www.w3.org/2000/svg">
<g clip-path="url(#clip0_460_5760)">
<path fill-rule="evenodd" clip-rule="evenodd" d="M10.3353 0.823438C9.97906 1.27625 9.6875 1.82937 9.6875 2.0525C9.6875 2.27594 9.30062 2.50312 8.82812 2.5575C8.03125 2.64906 7.9575 2.77969 7.8125 4.35031L7.65625 6.04437L5.15625 6.87687L2.65625 7.70906L2.575 21.6313C2.50563 33.5144 2.42531 35.6103 2.02812 35.94C1.77187 36.1528 1.5625 36.7863 1.5625 37.3481C1.5625 38.1772 1.41531 38.4066 0.78125 38.5659C0.275625 38.6928 0 38.9813 0 39.3831C0 39.9978 0.220625 40.0037 20.0781 39.9241L40.1562 39.8438L40.2519 39.1725C40.3088 38.7734 40.1819 38.5081 39.9394 38.5184C38.6353 38.5744 38.4375 38.4247 38.4375 37.3819C38.4375 36.8016 38.2284 36.1531 37.9728 35.9409C37.5812 35.6159 37.4953 33.8769 37.4259 24.8869C37.3456 14.4544 37.33 14.2188 36.7188 14.2188C36.3084 14.2188 36.0594 14.4603 35.9938 14.9219C35.9125 15.495 35.6959 15.625 34.8219 15.625C34.105 15.625 33.75 15.4781 33.75 15.1819C33.75 14.9056 32.8081 14.425 31.25 13.9062L28.75 13.0737V11.5994C28.75 10.0375 28.3591 9.375 27.4375 9.375C26.9256 9.375 26.875 9.02156 26.875 5.45469C26.875 1.70875 26.8409 1.5 26.1078 0.767187L25.3409 0H18.1619H10.9828L10.3353 0.823438ZM11.4644 1.765C11.0706 2.15844 11.2437 2.5 11.8369 2.5C12.6891 2.5 13.0688 3.11187 13.1816 4.66656L13.2812 6.03938L15.4266 6.76125C16.6066 7.15844 17.7669 7.64469 18.0047 7.8425C18.3231 8.10656 18.4375 9.06781 18.4375 11.4778C18.4375 13.9675 18.5312 14.7197 18.8281 14.6103C19.0431 14.5312 20.1678 14.1531 21.3281 13.7703L23.4375 13.0741V11.5994C23.4375 10.0328 23.8284 9.375 24.7597 9.375C25.2878 9.375 25.325 9.08062 25.2441 5.54688L25.1562 1.71875L18.4175 1.63469C14.7109 1.58844 11.5822 1.64719 11.4644 1.765ZM34.0625 18.125C34.0625 18.9584 34.1666 19.0625 35 19.0625C35.8334 19.0625 35.9375 18.9584 35.9375 18.125C35.9375 17.2916 35.8334 17.1875 35 17.1875C34.1666 17.1875 34.0625 17.2916 34.0625 18.125ZM34.0625 21.875C34.0625 22.7084 34.1666 22.8125 35 22.8125C35.8334 22.8125 35.9375 22.7084 35.9375 21.875C35.9375 21.0416 35.8334 20.9375 35 20.9375C34.1666 20.9375 34.0625 21.0416 34.0625 21.875ZM34.0625 25.3125C34.0625 26.1459 34.1666 26.25 35 26.25C35.8334 26.25 35.9375 26.1459 35.9375 25.3125C35.9375 24.4791 35.8334 24.375 35 24.375C34.1666 24.375 34.0625 24.4791 34.0625 25.3125ZM34.0625 28.75C34.0625 29.5834 34.1666 29.6875 35 29.6875C35.8334 29.6875 35.9375 29.5834 35.9375 28.75C35.9375 27.9166 35.8334 27.8125 35 27.8125C34.1666 27.8125 34.0625 27.9166 34.0625 28.75ZM34.0625 33.4375V35.625H35H35.9375V33.4375V31.25H35H34.0625V33.4375ZM0.049375 39.375C0.049375 39.8047 0.120312 39.9806 0.206875 39.7656C0.29375 39.5509 0.29375 39.1994 0.206875 38.9844C0.120312 38.7697 0.049375 38.9453 0.049375 39.375Z" fill="#009551"/>
</g>
<defs>
<clipPath id="clip0_460_5760">
<rect width="40" height="40" fill="white"/>
</clipPath>
</defs>
</svg>
