<svg width="40" height="40" viewBox="0 0 40 40" fill="none" xmlns="http://www.w3.org/2000/svg">
<path fill-rule="evenodd" clip-rule="evenodd" d="M16.9628 5.19486C16.8416 5.31611 16.7422 5.6733 16.7422 5.98861C16.7422 6.51642 16.4022 6.56142 12.4006 6.56142C8.82969 6.56142 8.02719 6.4783 7.87906 6.09267C7.76625 5.79861 7.28844 5.62392 6.59562 5.62392C5.82312 5.62392 5.49219 5.76455 5.49219 6.09267C5.49219 6.47017 5.00594 6.56142 2.99219 6.56142H0.492188V12.1864V17.8114H2.76656C4.65406 17.8114 5.13188 17.9177 5.57594 18.4364C6.26094 19.2364 7.2525 19.2364 7.75219 18.4364C8.11188 17.8605 8.48094 17.8114 12.4425 17.8114H16.7422V18.5592C16.7422 19.4702 17.2444 19.6864 19.3616 19.6864C21.1478 19.6864 21.7422 19.318 21.7422 18.2114V17.4861L22.9141 18.087C24.4228 18.8602 26.3237 20.7664 27.1034 22.2877C27.5856 23.2283 27.8056 23.4083 28.1369 23.1336C28.455 22.8695 28.8125 22.9399 29.6031 23.4217C30.9069 24.2167 31.6047 24.2239 33.0363 23.4564C34.1562 22.8564 34.175 22.8564 35.4425 23.4836C36.3312 23.9236 37.0091 24.0524 37.6687 23.9077C38.7497 23.6702 38.7153 23.7355 38.3125 22.6755C38.0713 22.0411 37.7944 21.8736 36.9844 21.8717C36.4216 21.8708 35.5578 21.6039 35.065 21.2789C34.1853 20.6992 34.15 20.6995 33.1544 21.287L32.1397 21.8855L30.8053 20.1561C29.2319 18.1164 26.3916 15.8902 23.7734 14.6439L21.8984 13.7517L21.7422 9.4533L21.5859 5.15517L19.3847 5.06455C18.1741 5.01486 17.0844 5.07361 16.9628 5.19486ZM27.3672 13.7339C27.3672 13.8977 27.9859 14.457 28.7422 14.9774C29.4984 15.4977 31.0294 16.923 32.1444 18.1445C34.4419 20.6617 35.2797 20.5999 33.215 18.0652C31.005 15.3527 27.3672 12.6583 27.3672 13.7339ZM0.804688 31.9817V34.9989H20.1797H39.5547V32.1864C39.5547 29.4917 39.4119 29.0377 38.7578 29.6536C38.0756 30.2958 36.5775 30.3211 35.3812 29.7105C34.1869 29.1005 34.1672 29.1005 33.0422 29.7033C31.6225 30.4642 31.2334 30.4627 29.7172 29.6895C28.6609 29.1511 28.4109 29.1249 27.8497 29.4924C26.6403 30.2849 25.41 30.363 24.1641 29.727C23.0131 29.1395 22.9713 29.1395 21.8325 29.7202C21.1944 30.0455 20.4506 30.3114 20.1797 30.3114C19.9088 30.3114 19.165 30.0455 18.5269 29.7202C17.3881 29.1395 17.3463 29.1395 16.1953 29.727C14.9494 30.363 13.7191 30.2849 12.5097 29.4924C11.9484 29.1249 11.6984 29.1511 10.6422 29.6895C9.12594 30.4627 8.73688 30.4642 7.31719 29.7033C6.19219 29.1005 6.1725 29.1005 4.97812 29.7105C3.65906 30.3839 2.30187 30.2852 1.35156 29.447C0.835313 28.9914 0.804688 29.1327 0.804688 31.9817Z" fill="#009551"/>
</svg>
