<svg width="40" height="40" viewBox="0 0 40 40" fill="none" xmlns="http://www.w3.org/2000/svg">
<path fill-rule="evenodd" clip-rule="evenodd" d="M15.5852 9.29688L10.6877 14.2188L8.72148 24.1278L6.75523 34.0372L4.71648 34.1278C2.7743 34.2144 2.67773 34.2556 2.67773 35V35.7812H20.0215H37.3652V35C37.3652 34.2806 37.2387 34.2113 35.7668 34.1256L34.1684 34.0328L33.0096 28.1881L31.8509 22.3438L29.1459 19.6094C27.658 18.1056 26.2777 16.875 26.0784 16.875C25.879 16.875 25.6255 16.3475 25.5149 15.7031C25.2296 14.0381 21.224 4.375 20.8193 4.375C20.6343 4.375 18.279 6.58969 15.5852 9.29688ZM12.5546 20.7459C11.743 21.61 11.7102 22.1875 12.473 22.1875C13.0837 22.1875 14.084 21.2712 14.084 20.7119C14.084 20.0437 13.1959 20.0634 12.5546 20.7459ZM25.9762 25.4969C25.1934 26.3887 25.0665 26.7087 25.3571 27.0594C25.8321 27.6316 25.7627 27.6534 27.0418 26.53C27.6493 25.9966 28.1465 25.2934 28.1465 24.9675C28.1465 24.0022 27.0549 24.2684 25.9762 25.4969ZM11.9227 26.3794C10.9409 27.3922 10.8462 28.125 11.6974 28.125C12.2884 28.125 14.1837 26.0391 13.9443 25.6519C13.5815 25.0647 12.9909 25.2772 11.9227 26.3794ZM27.0215 29.5C25.9315 30.59 25.7712 31.2394 26.5293 31.4922C26.7355 31.5609 27.4071 31.1144 28.0215 30.5C28.6359 29.8856 29.0824 29.2141 29.0137 29.0078C28.7609 28.2497 28.1115 28.41 27.0215 29.5Z" fill="#009551"/>
</svg>
