<svg width="40" height="40" viewBox="0 0 40 40" fill="none" xmlns="http://www.w3.org/2000/svg">
<path fill-rule="evenodd" clip-rule="evenodd" d="M15.5509 2.98809C13.8409 3.9159 13.75 4.47434 13.75 14.0459C13.75 22.6962 13.7584 22.8115 14.3956 22.8115C14.7506 22.8115 15.3131 22.9572 15.6456 23.135C16.1903 23.4265 16.25 23.349 16.25 22.3537V21.249H20.625H25V22.1653C25 22.82 25.2591 23.2659 25.9075 23.7278C26.4069 24.0831 26.9694 24.374 27.1575 24.374C27.3981 24.374 27.5 21.6353 27.5 15.1775C27.5 7.23402 27.5669 5.91434 27.9909 5.48996C28.2612 5.21996 28.6028 4.99902 28.75 4.99902C29.2275 4.99902 30 5.96559 30 6.56277C30 7.23246 30.9622 7.63246 31.875 7.34277C32.3159 7.20277 32.5 6.86996 32.5 6.21246C32.5 3.36309 29.4741 1.62371 26.8647 2.97309C25.4088 3.7259 25 4.88621 25 8.26465V11.249H20.625H16.25V8.61496C16.25 6.63715 16.3722 5.85871 16.7409 5.48996C17.0112 5.21996 17.3528 4.99902 17.5 4.99902C17.9775 4.99902 18.75 5.96559 18.75 6.56277C18.75 7.23246 19.7122 7.63246 20.625 7.34277C21.3947 7.0984 21.4656 5.69777 20.7759 4.36371C19.8922 2.65465 17.3828 1.99402 15.5509 2.98809ZM16.25 16.249V18.749H20.625H25V16.249V13.749H20.625H16.25V16.249ZM2.875 25.374C2.61 25.639 2.5 27.4712 2.5 31.624V37.499H20.0081H37.5163L37.43 32.7372L37.3438 27.9753L36.4062 27.5346C35.8906 27.2921 34.9409 26.6225 34.2959 26.0465C32.4609 24.4075 30.0434 24.66 28.1487 26.6881C27.2084 27.6946 26.7406 27.7056 25.7787 26.7437C24.4553 25.4203 23.6419 24.999 22.41 24.999C20.9747 24.999 20.1313 25.3956 19.0019 26.6006C17.9581 27.7146 17.7706 27.7153 16.4953 26.6075C15.0278 25.3328 14.2722 24.999 12.8522 24.999C11.8409 24.999 11.3231 25.2393 10.1562 26.249C9.36188 26.9365 8.58469 27.499 8.42938 27.499C8.27406 27.499 7.68469 27.0978 7.12031 26.6075C5.27625 25.0056 3.70094 24.5481 2.875 25.374Z" fill="#009551"/>
</svg>
