<svg width="40" height="40" viewBox="0 0 40 40" fill="none" xmlns="http://www.w3.org/2000/svg">
<path fill-rule="evenodd" clip-rule="evenodd" d="M19.0527 2.38292C18.9299 2.50573 18.8296 3.52448 18.8296 4.64667V6.68698L17.799 5.68823C16.623 4.54854 15.5671 4.40323 15.0796 5.31448C14.6421 6.13229 14.9321 6.62729 17.0877 8.74135L18.8296 10.4495V13.8195C18.8296 15.6729 18.7243 17.1851 18.5952 17.1795C18.4661 17.1742 17.0308 16.3589 15.4049 15.3682L12.449 13.5664L11.8111 11.0157C11.0752 8.0726 10.7708 7.65167 9.5927 7.94729C8.7677 8.15448 8.75239 8.20135 8.95083 9.89135L9.15458 11.6232L7.97645 10.9089C7.32833 10.516 6.55395 10.0479 6.25489 9.86917C5.83333 9.61635 5.56114 9.69417 5.03958 10.2154C4.13895 11.1164 4.41708 11.6673 6.3827 12.877L8.02114 13.8851L6.71895 14.2092C5.04208 14.6267 4.63364 15.0532 4.89926 16.1117C5.09676 16.8982 5.19895 16.9432 6.42333 16.7835C7.1452 16.6895 8.51833 16.4373 9.47458 16.2235L11.2136 15.8348L14.2402 17.616C15.9052 18.5957 17.2618 19.4982 17.2552 19.6217C17.2486 19.7448 15.8865 20.666 14.2277 21.6685L11.2121 23.4917L8.53801 22.8704C5.4702 22.1582 4.66958 22.336 4.82645 23.6948C4.90708 24.3917 5.17364 24.6126 6.40489 25.002L7.88645 25.471L6.51364 26.3398C4.62145 27.5367 4.32958 27.9342 4.75645 28.732C5.23083 29.6182 6.15114 29.5404 7.89676 28.4664L9.37676 27.5557L9.11051 28.7007C8.70895 30.4295 8.77051 30.8857 9.45458 31.252C10.6296 31.8807 11.2274 31.1701 11.8165 28.4439C12.1136 27.0673 12.568 25.7664 12.8255 25.5526C13.0833 25.3385 14.5043 24.4364 15.9836 23.5473L18.6733 21.9307L18.7615 25.6967L18.8496 29.4626L16.7736 31.6126C14.7958 33.6614 14.7199 33.7957 15.1605 34.4604C15.8786 35.5439 16.5674 35.4745 17.734 34.201L18.8005 33.0367L18.893 35.3476L18.9858 37.6582H20.0796H21.1733L21.2658 35.3642L21.358 33.0698L22.438 34.2151C23.6189 35.467 24.2889 35.531 24.9986 34.4604C25.4393 33.7957 25.3633 33.6614 23.3855 31.6126L21.3096 29.4626L21.3977 25.6967L21.4858 21.9307L24.2552 23.5951C25.7783 24.5104 27.1561 25.391 27.3168 25.5517C27.4777 25.7126 27.919 27.0257 28.2974 28.4698C28.9214 30.8498 29.0615 31.1045 29.794 31.1898C31.0368 31.3342 31.474 30.5835 31.0711 28.9967C30.8871 28.2717 30.7677 27.647 30.8058 27.6089C30.8443 27.5707 31.5396 27.9529 32.3514 28.4582C33.9883 29.477 34.8149 29.6039 35.3796 28.9232C35.9855 28.1929 35.4983 27.3826 33.8586 26.3945C33.0161 25.8867 32.3821 25.3814 32.4496 25.272C32.5174 25.1623 33.0646 24.9804 33.6661 24.8676C34.9664 24.6239 35.5749 23.7401 35.0796 22.8145C34.664 22.0382 34.3699 22.0382 31.3215 22.8167L28.8655 23.4435L25.7036 21.5335C23.9646 20.4829 22.5852 19.5835 22.6386 19.5348C22.6921 19.4864 24.1065 18.6048 25.7815 17.5764L28.8271 15.7067L31.2502 16.281C34.3383 17.0132 34.6736 17.0107 35.0796 16.252C35.5749 15.3264 34.9664 14.4426 33.6661 14.1989C33.0646 14.086 32.5174 13.9042 32.4496 13.7945C32.3821 13.6851 33.0111 13.1826 33.848 12.6785C35.5449 11.6557 35.853 11.1757 35.3799 10.292C34.9236 9.43917 33.9811 9.5426 32.1955 10.6414L30.6486 11.5932L30.8849 10.5632C31.2721 8.87573 31.2068 8.39604 30.529 7.93854C29.4952 7.24104 28.8958 7.98104 28.1193 10.9148L27.4233 13.5442L24.4546 15.3664L21.4858 17.1889L21.3968 13.866L21.3077 10.5435L23.3499 8.42823C24.473 7.26479 25.3921 6.21948 25.3921 6.10542C25.3921 5.99167 25.2465 5.62635 25.0686 5.29385C24.5924 4.40417 23.4477 4.55729 22.4036 5.65042L21.4858 6.61167L21.3296 4.47854C21.1752 2.37135 21.1618 2.34448 20.2246 2.25292C19.7027 2.20167 19.1755 2.26042 19.0527 2.38292Z" fill="#009551"/>
</svg>
